<svg xmlns="http://www.w3.org/2000/svg" fill="none" viewBox="0 0 120 115">
  <path fill="#FBFBFB" d="M13.1661 106.792v-9.8124h4.0161c.813 0 1.4578.1495 1.9344.4486.4812.2943.8247.6751 1.0303 1.1424.2056.4626.3083.9438.3083 1.4434 0 .351-.0607.704-.1822 1.059-.1168.35-.306.675-.5677.974-.2616.299-.6004.54-1.0163.722-.4158.177-.9181.266-1.5068.266h-2.397v3.757h-1.6191Zm1.6191-5.271h2.4811c.3784 0 .6798-.074.9041-.224.2243-.154.3855-.346.4836-.575.0981-.233.1472-.469.1472-.708 0-.2145-.0444-.4388-.1332-.6724-.0841-.2383-.2383-.4393-.4626-.6028-.2242-.1635-.5373-.2453-.9391-.2453h-2.4811v3.0275Zm10.8806 5.271v-9.8124h4.2684c.8036 0 1.4391.1402 1.9063.4205.4673.2804.799.6472.9953 1.1004.2009.4486.3014.9252.3014 1.4298 0 .3787-.0725.7567-.2173 1.1357-.1449.378-.3715.717-.6799 1.016-.3037.294-.6938.507-1.1704.638l1.9905 4.072h-1.8153l-1.9134-3.883h-2.0466v3.883h-1.619Zm1.619-5.397h2.6774c.3785 0 .6775-.07.8971-.21.2243-.14.3832-.32.4766-.54.0935-.219.1402-.451.1402-.6937 0-.2243-.0444-.4462-.1332-.6658-.0841-.2243-.2383-.4112-.4626-.5607-.2196-.1542-.5256-.2313-.9181-.2313h-2.6774v2.9015Zm11.5104 5.397v-9.8124h6.3639v1.5279h-4.7449v2.4535h2.9086v1.527h-2.9086v2.762h5.0393v1.542h-6.6583Zm15.1592.168c-.5981 0-1.1425-.103-1.6331-.308-.4859-.211-.9018-.5-1.2475-.869-.3411-.374-.5958-.809-.764-1.304l1.4789-.554c.2055.449.4999.813.8831 1.094.3831.275.8247.413 1.3246.413.5233 0 .9439-.117 1.2616-.35.3177-.234.4766-.575.4766-1.024 0-.308-.0935-.565-.2804-.771-.1869-.21-.4368-.387-.7499-.532-.3131-.15-.6565-.29-1.0303-.421-.3504-.126-.7055-.264-1.0653-.413-.3598-.15-.6869-.332-.9812-.547-.2944-.22-.5327-.488-.7149-.806-.1776-.322-.2664-.7148-.2664-1.1774 0-.4672.1262-.8948.3785-1.2826.2523-.3925.6168-.7055 1.0934-.9392.4766-.2382 1.0513-.3574 1.7241-.3574.556 0 1.0467.0911 1.4719.2733.4252.1776.7756.4229 1.0513.736.2756.3083.4696.6564.5817 1.0443l-1.4578.4836c-.1262-.2851-.3318-.5257-.6168-.7219-.2803-.2009-.6565-.3014-1.1284-.3014-.4579 0-.8154.0958-1.0723.2874-.257.1869-.3855.4508-.3855.7919 0 .243.0864.4486.2593.6164.1729.164.4042.309.6939.435.2943.126.6167.252.9672.378.3738.136.7452.285 1.1144.449.3738.164.7149.364 1.0232.603.3131.238.5607.532.743.883.1869.35.2803.778.2803 1.282 0 .617-.1495 1.143-.4485 1.577-.2991.43-.7079.76-1.2266.989-.5139.229-1.0933.343-1.7381.343Zm9.0188-.168v-9.8124h6.364v1.5279h-4.745v2.4535h2.9087v1.527h-2.9087v2.762h5.0393v1.542h-6.6583Zm12.1438 0v-9.8124h1.5419l4.023 6.1814c.0608.094.1285.208.2033.344.0794.131.1472.259.2032.385-.0046-.112-.0116-.238-.021-.378-.0047-.14-.007-.257-.007-.351v-6.1814h1.612v9.8124h-1.4788l-4.1002-6.21c-.056-.093-.1238-.208-.2032-.343-.0748-.136-.1425-.2596-.2033-.3718.0187.1122.0281.2338.0281.3648.0046.126.007.243.007.35v6.21h-1.605Zm15.6844 0v-8.2635h-2.7685v-1.5489h7.1559v1.5489h-2.7684v8.2635h-1.619Zm12.7406.168c-.598 0-1.142-.103-1.633-.308-.486-.211-.901-.5-1.247-.869-.341-.374-.596-.809-.7642-1.304l1.4792-.554c.205.449.5.813.883 1.094.383.275.824.413 1.324.413.524 0 .944-.117 1.262-.35.318-.234.477-.575.477-1.024 0-.308-.094-.565-.281-.771-.187-.21-.437-.387-.75-.532-.313-.15-.656-.29-1.03-.421-.35-.126-.705-.264-1.065-.413-.36-.15-.687-.332-.982-.547-.294-.22-.532-.488-.714-.806-.178-.322-.267-.7148-.267-1.1774 0-.4672.126-.8948.379-1.2826.252-.3925.617-.7055 1.093-.9392.477-.2382 1.051-.3574 1.724-.3574.556 0 1.047.0911 1.472.2733.425.1776.776.4229 1.051.736.276.3083.47.6564.582 1.0443l-1.458.4836c-.126-.2851-.331-.5257-.616-.7219-.281-.2009-.657-.3014-1.129-.3014-.458 0-.815.0958-1.072.2874-.257.1869-.386.4508-.386.7919 0 .243.087.4486.26.6164.173.164.404.309.694.435.294.126.616.252.967.378.374.136.745.285 1.114.449.374.164.715.364 1.023.603.313.238.561.532.743.883.187.35.281.778.281 1.282 0 .617-.15 1.143-.449 1.577-.299.43-.708.76-1.226.989-.514.229-1.094.343-1.739.343Z"/>
  <circle cx="60" cy="38" r="38" fill="#EB5027"/>
  <circle cx="59.9997" cy="38.3425" r="27.443" fill="#fff" stroke="#000" stroke-width=".573444"/>
  <path fill="#fff" d="m87.73 51.5675 3.9271-.6526 1.9167.7238.3505-.9282-1.9167-.7238-2.5155-3.0855-.3969 1.0512 1.7983 2.1152-.019.0502-2.7476.3985-.3969 1.0512ZM81.4966 60.8352l1.188-1.2125 3.3272 3.2601.6906-.7049-3.3271-3.2601 1.1881-1.2125-.5957-.5837-3.0668 3.1299.5957.5837ZM73.0079 71.2157l3.2495-1.5342-.356-.7542-2.3499 1.1095-.64-1.3556 2.1631-1.0213-.3561-.7542-2.1631 1.0213-.6366-1.3483 2.3305-1.1003-.3561-.7541-3.2301 1.525 2.3448 4.9664ZM60.6526 68.4687h-.9949v5.4921h.9949v-5.4921ZM50.2556 68.9734c.4077-1.1624-.1033-2.2212-1.186-2.7779-1.276-.656-2.7153-.2201-3.5271 1.3587-.8105 1.5765-.3408 2.997.9471 3.6592 1.1614.5972 2.318.242 2.9334-.6206l-.8895-.4634c-.4064.5147-1.0394.5964-1.6237.2959-.7918-.4071-1.054-1.2928-.4777-2.4137.5665-1.1018 1.4445-1.4254 2.2435-1.0146.5938.3054.886.8808.6881 1.5178l.8919.4586ZM37.8466 62.9169c1.4424-1.035 1.6605-2.525.8209-3.695-.8411-1.1722-2.3209-1.4405-3.7633-.4055-1.4402 1.0334-1.662 2.5228-.8209 3.695.8396 1.17 2.3209 1.4405 3.7633.4055Zm-.5832-.8127c-1.0153.7286-1.9324.6143-2.4546-.1134-.5206-.7256-.3368-1.6332.6786-2.3617 1.0153-.7286 1.9339-.6121 2.4546.1134.5221.7277.3368 1.6331-.6786 2.3617ZM30.6079 50.4154l.2916.9119c.8781-.3005 1.2629-1.2541.9068-2.3678-.3512-1.0983-1.2332-1.7257-2.157-1.4275-.751.2402-1.0119.9121-.9589 1.8439l.0371.6442c.0374.6102-.0196 1.0395-.4249 1.1719-.4478.1404-.8822-.188-1.0799-.8062-.1895-.5925-.0709-1.1373.466-1.3512l-.2981-.9323c-1.0273.3707-1.3648 1.3317-.9752 2.5501.4011 1.2542 1.2597 1.782 2.1826 1.4897.906-.2925 1.0804-1.1732 1.0153-2.0196l-.0342-.5296c-.0351-.4618-.0024-.9847.436-1.1192.3942-.1233.7956.1369.9851.7295.1805.5645.0367 1.0216-.3923 1.2122ZM85.5062 21.7582l1.6925 3.1699.7357-.3928-1.2239-2.2923 1.3224-.706 1.1266 2.1102.7357-.3928-1.1266-2.1102 1.3153-.7022 1.2138 2.2734.7357-.3928-1.6823-3.1511-4.8449 2.5867ZM79.2961 8.865l1.367 1.00637-2.7616 3.75123.7948.5851 2.7616-3.7513 1.367 1.0064.4944-.6716-3.5288-2.59784-.4944.67164ZM64.3258 8.26847l3.3724.52985.1295-.8239-2.3896-.37543.723-4.60168-.9829-.15441-.8524 5.42557ZM50.7113 9.32985l3.4551-.98742-.2291-.80191-2.4986.71404-.4119-1.44137 2.3-.6573-.2292-.8019-2.3.6573-.4097-1.43363 2.4779-.70815-.2291-.8019-3.4346.98152 1.5092 5.28072ZM36.8519 10.8803l-.8153.7256 5.0957 2.8171.9175-.8166-2.2051-5.38979-.8173.72743 1.8083 4.17766-.042.0374-3.9418-2.2788ZM30.1859 20.5378l.426-.8574c-.8393-.396-1.7797.0201-2.3 1.0672-.5131 1.0326-.3174 2.0971.5532 2.5267.706.3508 1.3613.0506 1.9724-.6549l.4221-.488c.3982-.4639.7382-.7322 1.1212-.5449.4191.2113.502.7495.2132 1.3307-.2768.5572-.7414.8654-1.2756.6448l-.4356.8766c.9953.4496 1.9069-.0048 2.4761-1.1503.5859-1.1792.3376-2.156-.5282-2.5892-.8537-.4212-1.5924.0891-2.1353.7417l-.3444.4038c-.2965.3558-.6842.7081-1.0925.4993-.3686-.1862-.4753-.6525-.1985-1.2096.2638-.5308.6853-.7585 1.1259-.5965Z"/>
  <circle cx="26.9638" cy="35.8936" r=".855856" fill="#fff"/>
  <circle cx="92.6937" cy="35.8936" r=".855856" fill="#fff"/>
  <path fill="#EB5027" d="M74.6178 22.866c-3.8882-5.5357-11.5674-7.1763-17.1193-3.657l-9.7504 6.183c-1.316.8225-2.4452 1.9089-3.3155 3.19-.8703 1.2811-1.4626 2.7288-1.7392 4.2504-.4662 2.5683-.0584 5.218 1.159 7.5297-.8343 1.2595-1.4029 2.6745-1.6711 4.1592-.2785 1.5554-.2417 3.1504.1082 4.6913.3499 1.541 1.0059 2.9968 1.9293 4.2819 3.8882 5.5357 11.5674 7.1763 17.1193 3.657l9.7504-6.157c1.3145-.8242 2.4425-1.9111 3.3126-3.192.8701-1.2808 1.4633-2.7275 1.742-4.2484.4646-2.5675.0554-5.2159-1.1627-7.526.8339-1.2601 1.4036-2.6748 1.6749-4.1592.2777-1.5553.2404-3.1502-.1094-4.691-.3499-1.5409-1.0054-2.9967-1.9281-4.2821"/>
  <path fill="#fff" d="M56.7247 53.7936c-1.5424.3907-3.1704.3102-4.6644-.2308-1.494-.541-2.782-1.5163-3.6903-2.7944-.5576-.7615-.9536-1.6242-1.1646-2.5373-.2109-.9132-.2326-1.8583-.0638-2.7797.0554-.2998.1333-.5951.2329-.8838l.1841-.55.5034.3667c1.157.8246 2.4488 1.4519 3.8205 1.8555l.3756.1063-.0338.3667c-.0361.5028.1087 1.0021.4095 1.4118.274.3844.6622.6777 1.1122.8403.45.1626.9403.1867 1.4047.0691.2124-.0558.415-.1423.6011-.2567l9.7822-6.0945c.2403-.1475.4462-.3425.6048-.5724.1585-.2298.266-.4895.3156-.7623.0501-.2781.0426-.5631-.0219-.8383s-.1848-.5351-.3538-.7642c-.274-.3845-.6622-.6777-1.1122-.8403-.45-.1626-.9403-.1867-1.4047-.0691-.2127.055-.4154.1416-.6011.2567l-3.7566 2.3285c-.6144.3803-1.2845.6671-1.9872.8507-1.5399.3884-3.1646.307-4.6557-.2332-1.491-.5403-2.7767-1.5133-3.684-2.7883-.556-.7623-.9504-1.6253-1.1601-2.5383-.2096-.9131-.2303-1.8578-.0608-2.7788.1659-.9039.5232-1.7642 1.0491-2.5257.5259-.7614 1.2088-1.4074 2.005-1.8966l9.8123-6.0945c.6108-.3795 1.277-.6663 1.976-.8507 1.5418-.3909 3.1694-.3105 4.6629.2306 1.4934.541 2.7808 1.5165 3.688 2.7946.5583.7613.955 1.6239 1.1666 2.537.2116.9132.2339 1.8584.0656 2.7801-.0586.3015-.1364.5991-.2329.8911l-.1878.55-.4997-.3667c-1.1594-.8308-2.4551-1.4632-3.8317-1.8701l-.3757-.1064.0338-.3667c.0434-.5052-.0976-1.0092-.3982-1.4227-.2758-.3779-.6628-.6648-1.1098-.8227-.4469-.1579-.9325-.1792-1.3921-.0611-.2126.0551-.4153.1416-.601.2567l-9.8011 6.0835c-.2393.1476-.4447.3422-.6031.5713-.1585.2291-.2665.4878-.3172.7598-.0491.2786-.0412.564.0232.8397.0645.2757.1843.5361.3524.7664.2728.381.6579.672 1.104.8344.4462.1624.9324.1886 1.3942.075.2121-.0565.4146-.143.601-.2567l3.7567-2.3248c.6139-.3845 1.2857-.6728 1.991-.8544 1.5414-.3919 3.1689-.3122 4.6625.2282 1.4935.5404 2.781 1.5154 3.6884 2.7933.5579.7615.9543 1.6241 1.1659 2.5371.2116.9131.2342 1.8583.0663 2.78-.1659.9039-.5232 1.7642-1.0491 2.5257-.5259.7614-1.2088 1.4074-2.005 1.8966l-9.8011 6.0945c-.6155.3814-1.2868.6695-1.991.8543Z"/>
  <g filter="url(#a)">
    <path fill="#000" d="M51.5129 17.5626c.7433-.1952 2.2047.017 3.3151.52l-.3868 2.2329s-1.7851-.6692-2.4008-1.5008c-.1745-.2356.2271-.7156.2271-.7156s-.6082.021-.6692.5451c-.0611.524.2656 1.0115 2.8862 1.9125 2.6205.901 2.4113 2.0473 4.5724 3.4835 2.2994 1.528 4.1183 2.3763 6.7775 3.6703 2.6592 1.294 6.2949 1.729 7.9657 1.6111 1.6208-.1143 2.9767-.5062 3.8474-.7651l.8703-3.7652.4.0706.1411-.8001c2.4003.4233 4.4478 2.8469 3.9539 5.6472-.7855 4.4538-5.9796 4.5929-9.58 4.0336-8.801-1.5522-24.2669-10.9216-23.6126-14.6315.2469-1.4001.9493-1.3532 1.6927-1.5485Z"/>
  </g>
  <path fill="#EB5027" d="m54.6798 20.7929.6703-3.8004 22.7324 7.928.4001.0706c.2687 2.2975-.8703 3.7651-.8703 3.7651-3.5885 1.6358-9.5242.209-11.8131-.846-3.9589-1.8248-8.6366-4.8232-11.1194-7.1173Z"/>
  <path fill="#000" d="M56.4559 13.0627c-1.1646 3.0945-1.282 4.93-1.282 4.93 1.3532 1.6824 7.972 6.356 14.155 7.4465 4.2005.7408 6.8361.9994 9.1186-.248l.2469-1.4001.8467-4.8006c.9172-5.2006-5.825-9.07093-8.4253-9.52955-1.3884-.31363-3.6004-.63501-5.2006-.91724-5.4006-.95252-8.2948 1.42448-9.4593 4.51899Z"/>
  <path fill="#fff" d="M79.496 31.0724c3.2366-.85 3.5558-3.1441 3.1753-4.1049.7884 1.3765.1202 3.8354-3.4456 4.7719-2.3709.6226-7.4073.3561-17.0154-5.6995 6.8317 3.8049 12.6397 6.2527 17.2857 5.0325Z"/>
  <defs>
    <filter id="a" width="34.8158" height="18.0131" x="49.0357" y="17.4908" color-interpolation-filters="sRGB" filterUnits="userSpaceOnUse">
      <feFlood flood-opacity="0" result="BackgroundImageFix"/>
      <feColorMatrix in="SourceAlpha" result="hardAlpha" values="0 0 0 0 0 0 0 0 0 0 0 0 0 0 0 0 0 0 127 0"/>
      <feOffset dy=".764592"/>
      <feGaussianBlur stdDeviation=".382296"/>
      <feColorMatrix values="0 0 0 0 0 0 0 0 0 0 0 0 0 0 0 0 0 0 0.25 0"/>
      <feBlend in2="BackgroundImageFix" result="effect1_dropShadow_1013_11319"/>
      <feBlend in="SourceGraphic" in2="effect1_dropShadow_1013_11319" result="shape"/>
    </filter>
  </defs>
</svg>