<svg id="ring" width="491" height="690" viewBox="0 0 491 690" fill="none" xmlns="http://www.w3.org/2000/svg">
<path d="M216.032 0.231967C212.708 0.48367 208.779 0.936731 207.369 1.18843C195.684 3.35308 192.159 4.10818 188.583 5.21568C187.877 5.41704 185.611 6.12181 183.546 6.72589C181.481 7.32998 179.366 8.03475 178.912 8.28645C178.409 8.53815 177.603 8.73951 177.099 8.73951C176.595 8.73951 175.991 8.94087 175.739 9.14223C175.437 9.34359 174.329 9.847 173.221 10.1994C171.005 10.9042 166.371 12.5654 164.407 13.3708C163.702 13.6729 162.694 14.0756 162.14 14.277C160.478 14.9314 155.291 17.2974 152.067 18.9083C149.297 20.3178 147.081 21.526 141.39 24.6471C138.317 26.3084 127.488 33.6077 123.61 36.6282C108.954 47.8541 98.0243 59.08 86.0371 75.189C78.2304 85.6598 66.9483 105.192 60.7029 119.086C57.8824 125.429 56.2707 129.104 55.616 130.815C55.4145 131.369 54.9612 132.477 54.6086 133.332C54.2561 134.138 53.7524 135.346 53.5509 135.95C53.148 137.057 52.7451 137.964 51.637 140.732C51.3852 141.387 50.6801 143.249 50.0757 144.911C49.4713 146.572 48.7662 148.384 48.5647 148.938C48.3129 149.492 47.6581 151.405 47.0537 153.217C46.4997 155.029 45.7946 156.892 45.5427 157.345C45.2405 157.848 45.0391 158.704 45.0391 159.207C45.0391 159.761 44.8376 160.365 44.5354 160.516C44.2836 160.667 44.0317 161.271 44.0317 161.825C44.0317 162.328 43.8303 163.184 43.5784 163.688C43.3266 164.141 42.8229 165.55 42.5208 166.809C42.1682 168.067 41.7149 169.527 41.5134 170.081C41.312 170.635 40.8587 172.094 40.5061 173.353C40.1535 174.612 39.7002 176.172 39.4988 176.877C39.2973 177.582 38.844 179.142 38.4915 180.401C38.1389 181.659 37.6856 183.22 37.4841 183.925C37.2827 184.629 36.8294 186.19 36.4768 187.448C36.1746 188.707 35.671 190.418 35.4191 191.274C35.1673 192.13 34.9658 193.288 34.9658 193.892C34.9658 194.446 34.7644 195.05 34.5125 195.201C34.2607 195.352 33.9585 196.208 33.8074 197.114C33.6563 198.02 33.2534 199.782 32.9512 201.04C32.649 202.299 32.1957 204.212 31.9439 205.319C31.3898 207.786 30.4832 211.662 29.8285 214.381C29.5766 215.488 29.1737 217.351 28.8715 218.508C27.6124 224.348 27.3605 225.355 26.9576 227.318C26.7058 228.526 26.2525 230.842 25.8999 232.503C25.5474 234.164 25.0941 236.53 24.8422 237.789C23.9356 242.169 22.8276 248.31 21.921 253.495C21.6692 254.955 21.2159 257.623 20.8633 259.435C19.9567 264.419 19.4531 267.59 17.791 278.665C17.4888 280.679 17.0858 283.599 16.834 285.109C16.5822 286.619 16.1289 289.589 15.8267 291.653C15.5245 293.717 15.0712 296.687 14.8194 298.198C14.5675 299.708 14.1142 302.678 13.812 304.742C13.5099 306.806 13.0566 309.776 12.8047 311.286C12.4018 314.004 11.8478 317.629 10.7397 324.979C10.4375 326.992 10.0346 330.013 9.78275 331.674C9.22873 335.248 8.42287 340.786 7.71774 346.021C7.41554 348.085 7.01262 351.156 6.76079 352.817C6.55932 354.478 6.10603 357.851 5.80383 360.368C5.50163 362.835 4.99797 366.711 4.74614 368.926C3.03369 382.216 1.57307 399.684 0.616109 417.001C-1.09634 447.759 0.817573 479.323 5.65272 502.58C6.96224 508.822 7.96957 513.101 8.72506 515.669C8.97689 516.625 9.37983 517.984 9.53092 518.689C9.73239 519.394 10.0346 520.401 10.2864 520.954C10.4879 521.508 10.9412 522.968 11.2937 524.227C11.6463 525.485 12.0996 526.945 12.3011 527.499C12.5529 528.052 13.2077 529.965 13.812 531.778C14.9201 535.1 15.1216 535.654 16.4814 538.825C16.9347 539.782 17.6399 541.594 18.1435 542.852C19.302 545.772 24.6911 556.293 25.9503 558.005C26.454 558.76 26.9072 559.515 26.9072 559.666C26.9072 560.522 36.6783 574.617 39.3477 577.537C39.9521 578.192 41.7653 580.306 43.377 582.168C44.9887 584.031 46.4493 585.592 46.7011 585.592C46.9026 585.642 45.7442 583.628 44.0821 581.162C39.9521 575.07 39.0455 573.46 34.7644 564.751C30.6847 556.495 29.9292 554.783 28.6701 551.41C28.2168 550.152 27.6124 548.692 27.3605 548.138C26.8065 546.829 24.3889 539.53 23.8349 537.416C23.3816 535.905 23.0794 534.697 21.8203 530.368C21.5181 529.361 21.1151 527.599 20.8633 526.492C20.6115 525.384 20.1582 523.471 19.856 522.213C18.7479 517.43 18.345 515.316 16.7836 506.104C14.6683 493.569 13.1069 471.52 13.1573 455.008C13.1573 435.677 15.0712 407.235 17.8413 384.38C19.2516 372.752 20.41 363.942 21.8706 353.824C22.1225 352.163 22.5758 348.991 22.878 346.776C23.1802 344.561 23.6334 341.49 23.8853 339.98C24.1371 338.47 24.54 335.601 24.8422 333.688C25.1444 331.724 25.5977 328.704 25.8496 326.892C26.7058 321.556 27.4109 316.823 27.9649 313.048C28.2671 311.085 28.6701 308.266 28.9219 306.755C29.1737 305.245 29.627 302.275 29.9292 300.211C30.4832 296.587 30.7854 294.472 31.9439 286.871C33.0015 279.672 34.8147 269.151 36.0235 262.707C36.2754 261.298 36.7286 259.033 36.9805 257.673C37.7863 253.193 39.2469 245.994 39.9521 242.823C40.2543 241.564 40.7076 239.4 41.0098 238.041C41.2616 236.631 41.7653 234.517 42.0171 233.258C42.3193 232 42.7726 230.036 43.0748 228.828C43.3266 227.67 43.7295 225.758 43.9814 224.549C44.5354 222.183 45.3413 218.811 46.0464 216.142C46.2982 215.186 46.7515 213.424 47.0537 212.216C48.1618 207.534 48.5143 206.225 49.018 204.413C49.3202 203.406 49.8238 201.695 50.126 200.638C50.4282 199.631 50.8312 197.97 51.083 197.013C51.8385 193.942 52.1407 192.784 52.594 191.727C52.7954 191.174 53.2487 189.714 53.6013 188.455C54.7597 184.378 55.2634 182.666 55.616 181.659C55.8174 181.105 57.1773 177.028 58.5876 172.598C60.0482 168.168 61.4081 164.09 61.6095 163.537C61.8614 162.983 62.5665 161.171 63.1709 159.509C63.7753 157.848 64.4804 155.986 64.7322 155.331C64.9841 154.727 65.387 153.72 65.6388 153.066C66.2936 151.354 66.9987 149.592 67.7038 147.931C68.0564 147.075 68.5097 145.968 68.7112 145.414C68.963 144.86 69.5674 143.4 70.1214 142.142C70.6251 140.883 71.5317 138.87 72.0353 137.611C74.6544 131.369 84.4758 112.441 88.354 106.148C89.5124 104.185 90.9226 101.869 91.4767 100.913C94.1964 96.1306 101.953 85.5088 108.551 77.4543C112.127 73.0747 123.006 62.0501 128.395 57.3181C133.633 52.7371 144.109 44.9343 149.7 41.5112C156.852 37.0812 159.824 35.4703 166.421 32.1479C172.012 29.3288 175.941 27.5669 179.265 26.3587C179.819 26.1573 180.826 25.7546 181.531 25.4526C182.236 25.2009 183.596 24.6975 184.553 24.3451C185.51 23.9927 186.769 23.5396 187.323 23.3383C187.877 23.0866 189.942 22.3818 191.856 21.7777C193.821 21.1736 195.835 20.5192 196.389 20.3178C196.943 20.1165 198.404 19.6634 199.663 19.311C200.922 18.9586 202.484 18.5056 203.189 18.3042C206.765 17.1967 212.305 16.0389 221.975 14.3273C228.019 13.2198 239.805 12.7164 247.058 13.2702C255.217 13.8742 261.513 14.579 265.643 15.3341C272.593 16.6933 273.45 16.8947 278.99 18.3546C286.243 20.2675 291.229 21.7777 292.438 22.3818C292.941 22.6335 293.646 22.8349 293.999 22.8349C294.603 22.8349 303.971 26.4594 308.202 28.3723C309.31 28.8757 311.375 29.7819 312.735 30.3859C315.959 31.7955 326.586 37.1316 332.126 40.152C334.493 41.4105 339.48 43.9275 343.207 45.7901C360.885 54.3984 376.297 62.4025 383.651 66.7318C384.96 67.4869 386.169 68.1413 386.32 68.1413C386.471 68.1413 387.579 68.7958 388.788 69.6515C389.997 70.457 391.105 71.1618 391.306 71.1618C391.457 71.1618 394.681 73.2761 398.509 75.7931C407.172 81.6829 407.222 81.7333 405.409 79.7197C400.725 74.6353 384.406 62.6039 374.786 57.1168C373.88 56.6133 371.009 54.9521 368.39 53.4419C365.771 51.9317 362.497 50.0187 361.087 49.2636C358.719 47.9044 342.25 39.5479 311.98 24.2444C304.626 20.5695 297.625 17.096 296.366 16.5926C295.107 16.0892 293.092 15.1831 291.833 14.6797C288.912 13.4212 287.3 12.7164 286.041 12.2633C285.487 12.062 284.48 11.6593 283.775 11.3572C283.069 11.0552 280.249 10.0987 277.479 9.19257C274.709 8.33679 271.989 7.43066 271.435 7.17895C270.881 6.97759 269.874 6.67555 269.168 6.52453C268.463 6.42385 267.103 6.07147 266.146 5.76942C261.362 4.41023 260.203 4.10818 258.088 3.70546C256.829 3.45376 254.713 3.00069 253.303 2.69865C243.482 0.634688 225.904 -0.523141 216.032 0.231967ZM430.995 106.652C433.06 109.672 435.528 113.649 436.535 115.461C438.55 119.036 445.4 132.829 446.608 135.598C447.011 136.554 447.716 138.266 448.22 139.373C449.379 142.092 449.731 142.897 450.99 146.421C451.595 148.082 452.3 149.894 452.552 150.448C452.753 151.002 453.911 154.375 455.07 157.999C456.228 161.573 457.336 164.946 457.588 165.399C457.84 165.903 458.042 166.758 458.042 167.262C458.042 167.816 458.243 168.369 458.495 168.52C458.747 168.671 459.049 169.426 459.2 170.182C459.704 172.699 460.61 176.071 462.121 181.408C462.423 182.364 462.877 184.076 463.128 185.183C463.431 186.291 463.834 188.002 464.035 188.959C464.287 189.915 464.74 191.828 465.093 193.238C465.395 194.597 465.899 196.661 466.15 197.768C466.604 199.631 466.856 200.688 468.064 207.081C468.316 208.34 468.77 210.706 469.122 212.367C470.23 217.854 470.482 219.566 472.194 230.49C472.648 233.56 473.252 238.091 474.159 245.441C479.145 285.21 479.145 338.067 474.159 377.584C473.907 379.9 473.454 383.525 473.202 385.639C472.9 387.804 472.446 391.076 472.194 392.938C471.892 394.851 471.439 397.771 471.137 399.483C470.583 403.359 469.777 407.94 469.172 410.96L468.165 415.994C467.561 418.964 466.856 422.086 466.1 425.156C465.798 426.213 465.395 427.925 465.093 428.932C464.841 429.989 464.438 431.751 464.186 432.858C463.934 433.966 463.38 435.879 462.977 437.137C462.574 438.396 461.718 441.114 461.063 443.178C460.459 445.242 459.754 447.407 459.502 447.961C459.301 448.514 458.646 450.427 458.042 452.24C457.437 454.052 456.782 455.965 456.531 456.518C456.329 457.072 455.523 459.086 454.768 461.049C454.012 462.962 453.055 465.378 452.652 466.335C452.249 467.291 451.695 468.55 451.494 469.104C450.688 471.168 448.925 474.893 444.241 484.457C439.456 494.173 437.542 497.747 434.47 502.983C433.564 504.443 432.858 505.751 432.858 505.902C432.858 506.053 431.952 507.513 430.844 509.124C429.736 510.735 428.829 512.195 428.829 512.396C428.829 512.547 425.404 517.833 421.173 524.126C414.374 534.345 407.121 544.413 399.113 554.682C395.638 559.163 368.541 593.042 367.08 594.703L361.036 601.751C355.798 607.892 336.861 627.173 332.479 630.898C320.945 640.563 307.95 650.229 301.05 654.206C291.783 659.491 277.882 666.338 273.45 667.747C272.341 668.1 271.233 668.603 270.931 668.804C270.679 669.006 269.974 669.207 269.37 669.207C268.715 669.207 268.06 669.409 267.909 669.711C267.758 669.962 267.053 670.214 266.398 670.214C265.744 670.214 265.089 670.415 264.938 670.667C264.787 670.919 264.031 671.221 263.276 671.372C262.47 671.523 260.959 671.926 259.851 672.228C252.699 674.292 246.101 675.5 237.941 676.255C231.998 676.859 215.226 676.507 210.24 675.701C201.678 674.342 195.533 672.983 187.323 670.667C184.704 669.912 176.293 667.143 175.135 666.64C174.48 666.388 173.473 665.985 172.868 665.734C170.602 664.828 165.112 662.462 161.385 660.8C156.953 658.787 144.865 652.595 140.634 650.178C139.576 649.574 137.864 648.618 136.857 648.014C135.799 647.41 134.741 646.755 134.439 646.554C134.187 646.353 133.079 645.698 132.072 645.094C131.014 644.49 129.352 643.584 128.395 643.03C127.438 642.476 125.826 641.57 124.869 641.016C123.912 640.463 122.301 639.557 121.344 639.003C120.387 638.449 118.775 637.543 117.818 636.989C116.861 636.435 115.199 635.529 114.192 634.925C113.134 634.321 112.026 633.667 111.774 633.465C111.472 633.214 110.011 632.358 108.5 631.552C104.924 629.64 102.859 628.482 98.679 625.965C96.8155 624.807 95.2038 623.901 95.103 623.901C95.0023 623.901 93.6928 623.146 92.2322 622.239C90.8219 621.283 87.6992 619.32 85.332 617.86C77.0216 612.624 69.4666 607.641 68.2075 606.584L66.9483 605.526L67.9557 606.735C69.8696 609 79.0362 616.652 84.3247 620.377C87.2459 622.391 91.1241 625.159 92.9373 626.518C94.8008 627.827 96.4629 628.935 96.614 628.935C96.8155 628.935 98.3265 629.841 99.9382 630.948C101.55 632.056 103.061 632.962 103.212 632.962C103.413 632.962 104.521 633.667 105.73 634.472C106.939 635.328 108.047 635.982 108.148 635.982C108.299 635.982 109.911 636.889 111.774 638.046C113.638 639.154 115.955 640.513 116.861 641.067C117.818 641.57 119.43 642.527 120.488 643.08C121.495 643.685 123.358 644.742 124.618 645.446C125.877 646.151 129.05 647.964 131.669 649.474C134.288 650.984 137.159 652.645 138.015 653.098C138.871 653.602 141.138 654.961 143.001 656.068C144.865 657.226 146.477 658.132 146.628 658.132C146.728 658.132 147.786 658.787 148.995 659.592C150.153 660.398 152.218 661.656 153.578 662.411C154.988 663.166 157.104 664.375 158.363 665.079C161.838 667.043 175.538 673.939 177.502 674.745C178.459 675.097 180.675 676.053 182.438 676.859C184.15 677.614 185.712 678.268 185.812 678.268C185.964 678.268 187.021 678.671 188.23 679.225C191.051 680.483 195.382 682.044 198.152 682.799C199.411 683.151 200.973 683.605 201.678 683.806C202.383 684.007 203.944 684.46 205.203 684.813C206.463 685.165 208.024 685.618 208.729 685.82C209.434 686.021 211.348 686.474 213.01 686.826C214.672 687.128 216.485 687.531 217.039 687.682C221.169 688.739 233.56 689.948 241.215 689.998C253.706 690.099 272.896 686.726 282.515 682.799C283.069 682.547 284.983 681.843 286.797 681.239C293.294 679.024 311.123 670.315 315.505 667.194C316.311 666.64 317.067 666.187 317.218 666.187C317.822 666.187 325.176 661.052 331.119 656.572C346.934 644.54 358.871 633.365 372.923 617.356C374.988 614.99 376.801 612.977 376.952 612.826C379.873 610.007 408.481 574.265 420.217 558.71C426.109 550.957 442.932 526.341 442.932 525.485C442.932 525.334 443.637 524.176 444.443 522.968C445.299 521.76 445.954 520.652 445.954 520.552C445.954 520.401 446.81 518.84 447.868 517.128C452.098 510.131 464.085 486.572 464.085 485.213C464.085 485.062 464.539 483.853 465.143 482.544C465.748 481.236 466.402 479.675 466.654 479.021C467.41 477.108 468.115 475.446 468.568 474.238C468.82 473.634 469.273 472.325 469.626 471.369C469.978 470.412 470.432 469.154 470.633 468.6C470.835 468.046 471.288 466.788 471.64 465.831C471.993 464.875 472.446 463.616 472.648 463.063C472.849 462.509 473.554 460.344 474.159 458.28C474.813 456.216 475.67 453.498 476.073 452.24C476.476 450.981 476.979 449.118 477.231 448.061C477.483 447.054 477.886 445.343 478.188 444.286C479.8 437.842 480.505 434.822 481.26 431.096L482.268 426.062C483.073 422.136 483.728 418.36 484.232 414.736C484.534 412.773 484.987 409.752 485.239 407.94C487.606 392.083 489.117 376.98 490.377 357.348C491.182 343.756 491.233 308.517 490.377 294.925C488.916 270.812 486.851 252.69 483.225 232C482.973 230.59 482.62 228.677 482.469 227.721C482.318 226.764 481.965 225.053 481.714 223.945C481.512 222.838 481.008 220.572 480.706 218.911C480.404 217.25 479.951 215.085 479.699 214.129C479.447 213.172 478.994 211.209 478.692 209.85C478.389 208.44 477.936 206.527 477.684 205.571C477.432 204.614 476.979 202.651 476.677 201.292C476.324 199.882 475.921 198.221 475.67 197.516C475.468 196.812 475.015 195.301 474.713 194.093C474.41 192.935 473.907 191.023 473.605 189.814C472.95 187.297 472.849 187.096 470.129 178.387C468.971 174.662 467.813 171.138 467.611 170.584C467.41 170.031 466.956 168.772 466.604 167.816C466.251 166.859 465.798 165.601 465.596 165.047C465.395 164.493 464.69 162.681 464.085 161.02C462.675 157.244 462.373 156.338 461.567 154.475C461.215 153.62 460.761 152.512 460.56 151.958C458.847 147.579 450.285 131.017 447.616 126.889C446.81 125.731 446.004 124.372 445.702 123.969C442.629 119.036 434.621 108.766 430.038 103.984L427.318 101.114L430.995 106.652Z" fill="url(#paint0_linear_207_3)"/>
<defs>
<linearGradient id="paint0_linear_207_3" x1="245.5" y1="690" x2="245.5" y2="0" gradientUnits="userSpaceOnUse">
<stop stop-color="#2B1336"/>
<stop offset="1" stop-color="#64004E"/>
</linearGradient>
</defs>
</svg>
