<svg width="25" height="29" viewBox="0 0 25 29" fill="none" xmlns="http://www.w3.org/2000/svg">
<g clip-path="url(#clip0_88_621)">
<path d="M23.1394 3.86354C20.4728 0.0225607 15.1639 -1.10282 11.3474 1.3192L4.61955 5.62501C2.78469 6.77485 1.51252 8.65865 1.14555 10.7871C0.827502 12.573 1.09662 14.4079 1.95288 15.9981C1.36573 16.8788 0.974291 17.8574 0.803037 18.8849C0.4116 21.0623 0.925361 23.3131 2.19753 25.099C4.88866 28.94 10.1731 30.0654 13.9896 27.6434L20.7174 23.362C22.5523 22.2122 23.8244 20.3284 24.1914 18.1999C24.5095 16.414 24.2403 14.5791 23.3841 12.9889C23.9712 12.1082 24.3627 11.1296 24.5339 10.1021C24.9498 7.90024 24.4361 5.64947 23.1394 3.86354Z" fill="#FF3E00"/>
<path d="M10.6868 25.466C8.50948 26.0287 6.23425 25.1724 4.96208 23.3376C4.1792 22.2611 3.88562 20.9155 4.10581 19.5944C4.15474 19.3743 4.20367 19.1785 4.25259 18.9584L4.37492 18.5669L4.71743 18.8116C5.52477 19.3987 6.4055 19.8391 7.35963 20.1327L7.60428 20.2061L7.57981 20.4507C7.55535 20.7932 7.65321 21.1602 7.84893 21.4538C8.24036 22.0165 8.92538 22.2856 9.58593 22.1143C9.73272 22.0654 9.87951 22.0165 10.0018 21.9431L16.7052 17.6617C17.0477 17.4415 17.2679 17.1235 17.3413 16.732C17.4147 16.3406 17.3168 15.9247 17.0966 15.6067C16.7052 15.044 16.0202 14.7993 15.3596 14.9706C15.2128 15.0195 15.0661 15.0684 14.9437 15.1418L12.3749 16.781C11.959 17.0501 11.4942 17.2458 11.0049 17.3681C8.82752 17.9308 6.55229 17.0746 5.28012 15.2397C4.52171 14.1632 4.20367 12.8177 4.44831 11.4966C4.6685 10.2244 5.45137 9.07456 6.55229 8.38954L13.2801 4.1082C13.696 3.83908 14.1609 3.64337 14.6501 3.49658C16.8275 2.93389 19.1027 3.79015 20.3749 5.62502C21.1578 6.70147 21.4514 8.04703 21.2312 9.36814C21.1823 9.58832 21.1333 9.78404 21.0599 10.0042L20.9376 10.3957L20.5951 10.151C19.7878 9.56385 18.907 9.12349 17.9529 8.82991L17.7083 8.75651L17.7327 8.51187C17.7572 8.16936 17.6593 7.80239 17.4636 7.50881C17.0722 6.94612 16.3872 6.70147 15.7266 6.87272C15.5798 6.92165 15.433 6.97058 15.3107 7.04398L8.60734 11.3253C8.26483 11.5455 8.04464 11.8635 7.97125 12.255C7.89785 12.6464 7.99571 13.0623 8.2159 13.3804C8.60734 13.9431 9.29235 14.1877 9.9529 14.0165C10.0997 13.9675 10.2465 13.9186 10.3688 13.8452L12.9376 12.2061C13.3535 11.9369 13.8183 11.7412 14.3076 11.5944C16.485 11.0317 18.7602 11.888 20.0324 13.7229C20.8153 14.7993 21.1089 16.1449 20.8887 17.466C20.6685 18.7382 19.8856 19.888 18.7847 20.573L12.0569 24.8544C11.641 25.1235 11.1761 25.3192 10.6868 25.466Z" fill="white"/>
</g>
<defs>
<clipPath id="clip0_88_621">
<rect width="24" height="28.8685" fill="white" transform="translate(0.680725 0.0469971)"/>
</clipPath>
</defs>
</svg>
