<svg width="180" height="29" viewBox="0 0 180 29" fill="none" xmlns="http://www.w3.org/2000/svg">
<path fill-rule="evenodd" clip-rule="evenodd" d="M26.2398 28.0438H21.6442V0.946289H26.2398V28.0438ZM0.432434 28.0438V0.946289H4.76911L14.0157 15.9453L11.6301 19.79L5.02801 9.06386V28.0438H0.432434ZM34.4878 15.848C36.6977 15.848 38.3529 16.5293 39.7306 17.6486V15.8772C39.7306 13.5314 38.769 11.9839 35.6621 11.9839C34.044 11.9839 32.4535 12.5581 31.1035 13.7164L28.7549 11.2636C30.8261 9.424 33.4152 8.4896 36.1429 8.4896C42.0423 8.4896 43.7992 11.8087 43.7992 16.6072V27.6155H39.7306V26.0679C38.4546 27.3625 36.559 28.0535 34.4878 28.0535C30.5857 28.0535 27.7562 25.5326 27.7562 21.9508C27.7562 18.3689 30.5857 15.8577 34.4878 15.8577V15.848ZM31.8987 21.941C31.8987 23.7125 33.3135 24.5787 35.5234 24.5787C37.0769 24.5787 38.6303 24.0337 39.7306 22.9144V20.9677C38.5933 19.8873 37.1416 19.3033 35.5234 19.3033C33.3135 19.3033 31.8987 20.1696 31.8987 21.941ZM51.7143 27.6058H47.6458V8.91786H51.7143V27.6058ZM49.68 0.946289C51.0948 0.946289 52.1951 2.06562 52.1951 3.54508C52.1951 5.02454 51.0948 6.14387 49.68 6.14387C48.2653 6.14387 47.1649 5.02454 47.1649 3.54508C47.1649 2.06562 48.2653 0.946289 49.68 0.946289ZM68.0438 16.101C68.0438 13.4633 66.9435 11.9547 64.5948 11.9547C62.5976 11.9547 60.7667 13.1811 59.7958 14.4853V27.6155H55.7273V8.91786H59.7958V11.0787C61.1736 9.63813 63.2079 8.47987 65.7969 8.47987C69.5603 8.47987 72.1124 10.9327 72.1124 15.4781V27.6058H68.0438V16.0913V16.101ZM84.133 11.9547C82.5796 11.9547 80.9891 12.8599 80.0275 14.0862V27.6155H75.959V8.91786H80.0275V10.7964C81.4792 9.424 83.3378 8.4896 85.483 8.4896C87.7947 8.4896 89.4868 9.46293 90.3837 11.2636C91.9372 9.7452 93.8697 8.4896 96.6252 8.4896C100.352 8.4896 102.423 10.9035 102.423 15.3808V27.6155H98.3543V16.0718C98.3543 13.4341 97.5591 11.9547 95.3214 11.9547C93.805 11.9547 92.1128 12.928 91.1789 14.2614C91.2437 14.8065 91.2437 15.3418 91.2437 15.9161V27.6058H87.1751V16.0621C87.1751 13.4244 86.4539 11.9449 84.1422 11.9449L84.133 11.9547ZM111.91 15.848C114.12 15.848 115.775 16.5293 117.153 17.6486V15.8772C117.153 13.5314 116.182 11.9839 113.084 11.9839C111.466 11.9839 109.876 12.5581 108.526 13.7164L106.177 11.2636C108.248 9.424 110.837 8.4896 113.565 8.4896C119.464 8.4896 121.221 11.8087 121.221 16.6072V27.6155H117.153V26.0679C115.877 27.3625 113.981 28.0535 111.91 28.0535C108.008 28.0535 105.178 25.5326 105.178 21.9508C105.178 18.3689 108.008 15.8577 111.91 15.8577V15.848ZM109.321 21.941C109.321 23.7125 110.736 24.5787 112.946 24.5787C114.499 24.5787 116.052 24.0337 117.153 22.9144V20.9677C116.015 19.8873 114.564 19.3033 112.946 19.3033C110.736 19.3033 109.321 20.1696 109.321 21.941ZM134.499 27.927C133.843 27.9951 133.048 28.0341 132.326 28.0341C128.018 28.0341 126.15 26.0485 126.15 21.357V12.3051H123.006V8.91786H126.15V3.33095H130.218V8.9276H134.499V12.3148H130.218V21.5128C130.218 23.6054 130.875 24.5787 133.011 24.5787C133.529 24.5787 134.083 24.5787 134.49 24.5398V27.927H134.499ZM147.472 27.927C146.816 27.9951 146.021 28.0341 145.299 28.0341C140.991 28.0341 139.123 26.0485 139.123 21.357V12.3051H135.979V8.91786H139.123V3.33095H143.191V8.9276H147.472V12.3148H143.191V21.5128C143.191 23.6054 143.848 24.5787 145.984 24.5787C146.502 24.5787 147.056 24.5787 147.463 24.5398V27.927H147.472ZM157.376 8.47987C162.517 8.47987 166.04 12.5581 166.04 18.3689C166.04 18.768 166.04 19.4201 165.975 19.8094H152.789C153.168 22.6613 155.175 24.569 157.93 24.569C159.724 24.569 161.213 23.7028 162.387 22.1844L165.254 24.3159C163.562 26.7006 161.01 28.0341 157.977 28.0341C152.355 28.0341 148.656 23.9948 148.656 18.2521C148.656 12.5095 152.142 8.47013 157.385 8.47013L157.376 8.47987ZM161.934 16.5585C161.731 13.7066 159.826 11.9449 157.376 11.9449C154.925 11.9449 153.131 13.6774 152.752 16.5585H161.934ZM178.43 8.47987C178.809 8.47987 179.225 8.5188 179.568 8.548V12.0812C179.225 12.0423 178.634 12.0131 178.116 12.0131C176.008 12.0131 174.075 13.1324 173.039 14.826V27.5961H168.971V8.91786H173.039V11.1857C174.251 9.49213 176.045 8.47987 178.421 8.47987H178.43Z" fill="white"/>
</svg>
