<svg width="150" height="40" viewBox="0 0 150 40" fill="none" xmlns="http://www.w3.org/2000/svg">
<path fill-rule="evenodd" clip-rule="evenodd" d="M21.61 31.9105H17.7618V9.22021H21.61V31.9105ZM0 31.9105V9.22021H3.63134L11.3741 21.7797L9.37645 24.9991L3.84814 16.0175V31.9105H0ZM28.5165 21.6982C30.367 21.6982 31.753 22.2688 32.9066 23.206V21.7227C32.9066 19.7585 32.1014 18.4626 29.4998 18.4626C28.1448 18.4626 26.8131 18.9435 25.6827 19.9133L23.716 17.8595C25.4504 16.3191 27.6183 15.5367 29.9024 15.5367C34.8423 15.5367 36.3134 18.3159 36.3134 22.334V31.5519H32.9066V30.256C31.8381 31.34 30.2509 31.9187 28.5165 31.9187C25.2491 31.9187 22.8798 29.8077 22.8798 26.8084C22.8798 23.8092 25.2491 21.7064 28.5165 21.7064V21.6982ZM26.3485 26.8003C26.3485 28.2836 27.5332 29.009 29.3837 29.009C30.6845 29.009 31.9852 28.5526 32.9066 27.6153V25.9853C31.9543 25.0806 30.7387 24.5916 29.3837 24.5916C27.5332 24.5916 26.3485 25.317 26.3485 26.8003ZM42.9412 31.5437H39.5344V15.8953H42.9412V31.5437ZM41.2378 9.22021C42.4224 9.22021 43.3438 10.1575 43.3438 11.3963C43.3438 12.6352 42.4224 13.5724 41.2378 13.5724C40.0532 13.5724 39.1318 12.6352 39.1318 11.3963C39.1318 10.1575 40.0532 9.22021 41.2378 9.22021ZM56.6149 21.9101C56.6149 19.7014 55.6935 18.4381 53.7268 18.4381C52.0544 18.4381 50.5213 19.4651 49.7084 20.5572V31.5519H46.3016V15.8953H49.7084V17.7046C50.862 16.4984 52.5654 15.5285 54.7334 15.5285C57.8847 15.5285 60.0217 17.5824 60.0217 21.3885V31.5437H56.6149V21.902V21.9101ZM70.0872 18.4381C68.7865 18.4381 67.4547 19.1961 66.6495 20.223V31.5519H63.2427V15.8953H66.6495V17.4683C67.8651 16.3191 69.4214 15.5367 71.2177 15.5367C73.1534 15.5367 74.5703 16.3517 75.3213 17.8595C76.6221 16.588 78.2403 15.5367 80.5477 15.5367C83.668 15.5367 85.4024 17.5579 85.4024 21.307V31.5519H81.9956V21.8857C81.9956 19.677 81.3297 18.4381 79.456 18.4381C78.1861 18.4381 76.7692 19.2532 75.9872 20.3698C76.0414 20.8262 76.0414 21.2744 76.0414 21.7553V31.5437H72.6346V21.8775C72.6346 19.6688 72.0307 18.43 70.095 18.43L70.0872 18.4381ZM93.3464 21.6982C95.1969 21.6982 96.5829 22.2688 97.7365 23.206V21.7227C97.7365 19.7585 96.9236 18.4626 94.3297 18.4626C92.9748 18.4626 91.643 18.9435 90.5126 19.9133L88.5459 17.8595C90.2803 16.3191 92.4483 15.5367 94.7324 15.5367C99.6722 15.5367 101.143 18.3159 101.143 22.334V31.5519H97.7365V30.256C96.6681 31.34 95.0808 31.9187 93.3464 31.9187C90.079 31.9187 87.7097 29.8077 87.7097 26.8084C87.7097 23.8092 90.079 21.7064 93.3464 21.7064V21.6982ZM91.1785 26.8003C91.1785 28.2836 92.3631 29.009 94.2136 29.009C95.5144 29.009 96.8152 28.5526 97.7365 27.6153V25.9853C96.7842 25.0806 95.5686 24.5916 94.2136 24.5916C92.3631 24.5916 91.1785 25.317 91.1785 26.8003ZM112.262 31.8127C111.712 31.8698 111.046 31.9024 110.442 31.9024C106.834 31.9024 105.27 30.2397 105.27 26.3113V18.7316H102.638V15.8953H105.27V11.217H108.677V15.9034H112.262V18.7397H108.677V26.4417C108.677 28.194 109.227 29.009 111.015 29.009C111.449 29.009 111.913 29.009 112.254 28.9764V31.8127H112.262ZM123.125 31.8127C122.575 31.8698 121.909 31.9024 121.305 31.9024C117.697 31.9024 116.133 30.2397 116.133 26.3113V18.7316H113.501V15.8953H116.133V11.217H119.54V15.9034H123.125V18.7397H119.54V26.4417C119.54 28.194 120.09 29.009 121.878 29.009C122.312 29.009 122.777 29.009 123.117 28.9764V31.8127H123.125ZM131.417 15.5285C135.722 15.5285 138.672 18.9435 138.672 23.8092C138.672 24.1433 138.672 24.6894 138.618 25.0154H127.577C127.895 27.4034 129.575 29.0009 131.882 29.0009C133.384 29.0009 134.631 28.2755 135.614 27.0041L138.014 28.789C136.597 30.7858 134.46 31.9024 131.921 31.9024C127.213 31.9024 124.116 28.52 124.116 23.7114C124.116 18.9027 127.035 15.5204 131.425 15.5204L131.417 15.5285ZM135.235 22.2932C135.064 19.9052 133.469 18.43 131.417 18.43C129.366 18.43 127.864 19.8807 127.546 22.2932H135.235ZM149.048 15.5285C149.365 15.5285 149.714 15.5611 150 15.5856V18.5441C149.714 18.5115 149.218 18.487 148.784 18.487C147.019 18.487 145.401 19.4243 144.534 20.8425V31.5356H141.127V15.8953H144.534V17.7943C145.548 16.3761 147.05 15.5285 149.04 15.5285H149.048Z" fill="white"/>
</svg>
