<svg width="150" height="160" viewBox="0 0 150 160" fill="none" xmlns="http://www.w3.org/2000/svg">
<mask id="mask0_88_341" style="mask-type:alpha" maskUnits="userSpaceOnUse" x="0" y="0" width="150" height="160">
<rect width="150" height="159.1" fill="#D9D9D9"/>
</mask>
<g mask="url(#mask0_88_341)">
<circle cx="7.06141" cy="9.74818" r="2.98986" transform="rotate(-13.3725 7.06141 9.74818)" fill="#F7CF4A"/>
<circle cx="29.5385" cy="4.40467" r="2.98986" transform="rotate(-13.3725 29.5385 4.40467)" fill="#F7CF4A"/>
<circle cx="52.0155" cy="-0.938709" r="2.98986" transform="rotate(-13.3725 52.0155 -0.938709)" fill="#F7CF4A"/>
<circle cx="12.4049" cy="32.2252" r="2.98986" transform="rotate(-13.3725 12.4049 32.2252)" fill="#F7CF4A"/>
<circle cx="34.882" cy="26.8817" r="2.98986" transform="rotate(-13.3725 34.882 26.8817)" fill="#F7CF4A"/>
<circle cx="57.359" cy="21.5385" r="2.98986" transform="rotate(-13.3725 57.359 21.5385)" fill="#F7CF4A"/>
<circle cx="79.8361" cy="16.1951" r="2.98986" transform="rotate(-13.3725 79.8361 16.1951)" fill="#F7CF4A"/>
<circle cx="102.313" cy="10.8517" r="2.98986" transform="rotate(-13.3725 102.313 10.8517)" fill="#F7CF4A"/>
<circle cx="124.79" cy="5.50831" r="2.98986" transform="rotate(-13.3725 124.79 5.50831)" fill="#F7CF4A"/>
<circle cx="17.7483" cy="54.7023" r="2.98986" transform="rotate(-13.3725 17.7483 54.7023)" fill="#F7CF4A"/>
<circle cx="40.2253" cy="49.3588" r="2.98986" transform="rotate(-13.3725 40.2253 49.3588)" fill="#F7CF4A"/>
<circle cx="62.7024" cy="44.0154" r="2.98986" transform="rotate(-13.3725 62.7024 44.0154)" fill="#F7CF4A"/>
<circle cx="85.1795" cy="38.672" r="2.98986" transform="rotate(-13.3725 85.1795 38.672)" fill="#F7CF4A"/>
<circle cx="107.656" cy="33.3287" r="2.98986" transform="rotate(-13.3725 107.656 33.3287)" fill="#F7CF4A"/>
<circle cx="130.133" cy="27.9854" r="2.98986" transform="rotate(-13.3725 130.133 27.9854)" fill="#F7CF4A"/>
<circle cx="0.614571" cy="82.5227" r="2.98986" transform="rotate(-13.3725 0.614571 82.5227)" fill="#F7CF4A"/>
<circle cx="23.0917" cy="77.1793" r="2.98986" transform="rotate(-13.3725 23.0917 77.1793)" fill="#F7CF4A"/>
<circle cx="45.5687" cy="71.836" r="2.98986" transform="rotate(-13.3725 45.5687 71.836)" fill="#F7CF4A"/>
<circle cx="68.0458" cy="66.4926" r="2.98986" transform="rotate(-13.3725 68.0458 66.4926)" fill="#F7CF4A"/>
<circle cx="90.5228" cy="61.1492" r="2.98986" transform="rotate(-13.3725 90.5228 61.1492)" fill="#F7CF4A"/>
<circle cx="113" cy="55.8058" r="2.98986" transform="rotate(-13.3725 113 55.8058)" fill="#F7CF4A"/>
<circle cx="135.477" cy="50.4624" r="2.98986" transform="rotate(-13.3725 135.477 50.4624)" fill="#F7CF4A"/>
<circle cx="5.95789" cy="105" r="2.98986" transform="rotate(-13.3725 5.95789 105)" fill="#F7CF4A"/>
<circle cx="28.4349" cy="99.6563" r="2.98986" transform="rotate(-13.3725 28.4349 99.6563)" fill="#F7CF4A"/>
<circle cx="50.912" cy="94.3129" r="2.98986" transform="rotate(-13.3725 50.912 94.3129)" fill="#F7CF4A"/>
<circle cx="73.389" cy="88.9695" r="2.98986" transform="rotate(-13.3725 73.389 88.9695)" fill="#F7CF4A"/>
<circle cx="95.8661" cy="83.6261" r="2.98986" transform="rotate(-13.3725 95.8661 83.6261)" fill="#F7CF4A"/>
<circle cx="118.343" cy="78.2827" r="2.98986" transform="rotate(-13.3725 118.343 78.2827)" fill="#F7CF4A"/>
<circle cx="140.82" cy="72.9393" r="2.98986" transform="rotate(-13.3725 140.82 72.9393)" fill="#F7CF4A"/>
</g>
</svg>
