<svg width="90" height="269" viewBox="0 0 90 269" fill="none" xmlns="http://www.w3.org/2000/svg">
<g clip-path="url(#clip0_88_480)">
<rect x="64.7501" y="3" width="34.0835" height="34.0835" transform="rotate(15 64.7501 3)" stroke="#F7A649" stroke-width="3"/>
<rect x="97.6722" y="11.8214" width="34.0835" height="34.0835" transform="rotate(15 97.6722 11.8214)" stroke="#F7A649" stroke-width="3"/>
<rect x="55.9286" y="35.9221" width="34.0835" height="34.0835" transform="rotate(15 55.9286 35.9221)" stroke="#F7A649" stroke-width="3"/>
<rect x="88.8507" y="44.7436" width="34.0835" height="34.0835" transform="rotate(15 88.8507 44.7436)" stroke="#F7A649" stroke-width="3"/>
<rect x="47.1072" y="68.8442" width="34.0835" height="34.0835" transform="rotate(15 47.1072 68.8442)" stroke="#F7A649" stroke-width="3"/>
<rect x="80.0293" y="77.6656" width="34.0835" height="34.0835" transform="rotate(15 80.0293 77.6656)" stroke="#F7A649" stroke-width="3"/>
<rect x="38.2858" y="101.766" width="34.0835" height="34.0835" transform="rotate(15 38.2858 101.766)" stroke="#F7A649" stroke-width="3"/>
<rect x="71.2078" y="110.588" width="34.0835" height="34.0835" transform="rotate(15 71.2078 110.588)" stroke="#F7A649" stroke-width="3"/>
<rect x="29.4644" y="134.688" width="34.0835" height="34.0835" transform="rotate(15 29.4644 134.688)" stroke="#F7A649" stroke-width="3"/>
<rect x="62.3864" y="143.51" width="34.0835" height="34.0835" transform="rotate(15 62.3864 143.51)" stroke="#F7A649" stroke-width="3"/>
<rect x="95.3085" y="152.331" width="34.0835" height="34.0835" transform="rotate(15 95.3085 152.331)" stroke="#F7A649" stroke-width="3"/>
<rect x="20.6429" y="167.61" width="34.0835" height="34.0835" transform="rotate(15 20.6429 167.61)" stroke="#F7A649" stroke-width="3"/>
<rect x="53.5649" y="176.432" width="34.0835" height="34.0835" transform="rotate(15 53.5649 176.432)" stroke="#F7A649" stroke-width="3"/>
<rect x="86.4871" y="185.253" width="34.0835" height="34.0835" transform="rotate(15 86.4871 185.253)" stroke="#F7A649" stroke-width="3"/>
<rect x="11.8214" y="200.533" width="34.0835" height="34.0835" transform="rotate(15 11.8214 200.533)" stroke="#F7A649" stroke-width="3"/>
<rect x="44.7435" y="209.354" width="34.0835" height="34.0835" transform="rotate(15 44.7435 209.354)" stroke="#F7A649" stroke-width="3"/>
<rect x="77.6656" y="218.175" width="34.0835" height="34.0835" transform="rotate(15 77.6656 218.175)" stroke="#F7A649" stroke-width="3"/>
</g>
<defs>
<clipPath id="clip0_88_480">
<rect width="90" height="269" fill="white"/>
</clipPath>
</defs>
</svg>
