<svg width="145" height="127" viewBox="0 0 145 127" fill="none" xmlns="http://www.w3.org/2000/svg">
<g clip-path="url(#clip0_265_332)">
<mask id="mask0_265_332" style="mask-type:alpha" maskUnits="userSpaceOnUse" x="0" y="-69" width="1000" height="196">
<rect y="-68.6377" width="1000" height="195" rx="50" fill="#D9D9D9"/>
</mask>
<g mask="url(#mask0_265_332)">
<ellipse cx="2.53241" cy="2.96589" rx="2.53241" ry="2.96589" transform="matrix(0.961998 -0.273058 0.195268 0.98075 2.89893 7.89307)" fill="#E7820E"/>
<ellipse cx="2.53241" cy="2.96589" rx="2.53241" ry="2.96589" transform="matrix(0.961998 -0.273058 0.195268 0.98075 21.7239 2.54956)" fill="#E7820E"/>
<ellipse cx="2.53241" cy="2.96589" rx="2.53241" ry="2.96589" transform="matrix(0.961998 -0.273058 0.195268 0.98075 40.5488 -2.7937)" fill="#E7820E"/>
<ellipse cx="2.53241" cy="2.96589" rx="2.53241" ry="2.96589" transform="matrix(0.961998 -0.273058 0.195268 0.98075 7.37402 30.3701)" fill="#E7820E"/>
<ellipse cx="2.53241" cy="2.96589" rx="2.53241" ry="2.96589" transform="matrix(0.961998 -0.273058 0.195268 0.98075 26.1992 25.0266)" fill="#E7820E"/>
<ellipse cx="2.53241" cy="2.96589" rx="2.53241" ry="2.96589" transform="matrix(0.961998 -0.273058 0.195268 0.98075 45.0242 19.6833)" fill="#E7820E"/>
<ellipse cx="2.53241" cy="2.96589" rx="2.53241" ry="2.96589" transform="matrix(0.961998 -0.273058 0.195268 0.98075 63.8491 14.3398)" fill="#E7820E"/>
<ellipse cx="2.53241" cy="2.96589" rx="2.53241" ry="2.96589" transform="matrix(0.961998 -0.273058 0.195268 0.98075 82.6738 8.99658)" fill="#E7820E"/>
<ellipse cx="2.53241" cy="2.96589" rx="2.53241" ry="2.96589" transform="matrix(0.961998 -0.273058 0.195268 0.98075 101.499 3.65332)" fill="#E7820E"/>
<ellipse cx="2.53241" cy="2.96589" rx="2.53241" ry="2.96589" transform="matrix(0.961998 -0.273058 0.195268 0.98075 11.8494 52.8472)" fill="#E7820E"/>
<ellipse cx="2.53241" cy="2.96589" rx="2.53241" ry="2.96589" transform="matrix(0.961998 -0.273058 0.195268 0.98075 30.6743 47.5037)" fill="#E7820E"/>
<ellipse cx="2.53241" cy="2.96589" rx="2.53241" ry="2.96589" transform="matrix(0.961998 -0.273058 0.195268 0.98075 49.4995 42.1604)" fill="#E7820E"/>
<ellipse cx="2.53241" cy="2.96589" rx="2.53241" ry="2.96589" transform="matrix(0.961998 -0.273058 0.195268 0.98075 68.3245 36.8169)" fill="#E7820E"/>
<ellipse cx="2.53241" cy="2.96589" rx="2.53241" ry="2.96589" transform="matrix(0.961998 -0.273058 0.195268 0.98075 87.1492 31.4736)" fill="#E7820E"/>
<ellipse cx="2.53241" cy="2.96589" rx="2.53241" ry="2.96589" transform="matrix(0.961998 -0.273058 0.195268 0.98075 105.974 26.1301)" fill="#E7820E"/>
<ellipse cx="2.53241" cy="2.96589" rx="2.53241" ry="2.96589" transform="matrix(0.961998 -0.273058 0.195268 0.98075 -2.50049 80.6675)" fill="#E7820E"/>
<ellipse cx="2.53241" cy="2.96589" rx="2.53241" ry="2.96589" transform="matrix(0.961998 -0.273058 0.195268 0.98075 16.3245 75.3242)" fill="#E7820E"/>
<ellipse cx="2.53241" cy="2.96589" rx="2.53241" ry="2.96589" transform="matrix(0.961998 -0.273058 0.195268 0.98075 35.1494 69.9807)" fill="#E7820E"/>
<ellipse cx="2.53241" cy="2.96589" rx="2.53241" ry="2.96589" transform="matrix(0.961998 -0.273058 0.195268 0.98075 53.9746 64.6375)" fill="#E7820E"/>
<ellipse cx="2.53241" cy="2.96589" rx="2.53241" ry="2.96589" transform="matrix(0.961998 -0.273058 0.195268 0.98075 72.7996 59.2942)" fill="#E7820E"/>
<ellipse cx="2.53241" cy="2.96589" rx="2.53241" ry="2.96589" transform="matrix(0.961998 -0.273058 0.195268 0.98075 91.6245 53.9507)" fill="#E7820E"/>
<ellipse cx="2.53241" cy="2.96589" rx="2.53241" ry="2.96589" transform="matrix(0.961998 -0.273058 0.195268 0.98075 110.449 48.6072)" fill="#E7820E"/>
<ellipse cx="2.53241" cy="2.96589" rx="2.53241" ry="2.96589" transform="matrix(0.961998 -0.273058 0.195268 0.98075 1.97437 103.145)" fill="#E7820E"/>
<ellipse cx="2.53241" cy="2.96589" rx="2.53241" ry="2.96589" transform="matrix(0.961998 -0.273058 0.195268 0.98075 20.7993 97.801)" fill="#E7820E"/>
<ellipse cx="2.53241" cy="2.96589" rx="2.53241" ry="2.96589" transform="matrix(0.961998 -0.273058 0.195268 0.98075 39.6243 92.4578)" fill="#E7820E"/>
<ellipse cx="2.53241" cy="2.96589" rx="2.53241" ry="2.96589" transform="matrix(0.961998 -0.273058 0.195268 0.98075 58.4495 87.1143)" fill="#E7820E"/>
<ellipse cx="2.53241" cy="2.96589" rx="2.53241" ry="2.96589" transform="matrix(0.961998 -0.273058 0.195268 0.98075 77.2747 81.771)" fill="#E7820E"/>
<ellipse cx="2.53241" cy="2.96589" rx="2.53241" ry="2.96589" transform="matrix(0.961998 -0.273058 0.195268 0.98075 96.0994 76.4277)" fill="#E7820E"/>
<ellipse cx="2.53241" cy="2.96589" rx="2.53241" ry="2.96589" transform="matrix(0.961998 -0.273058 0.195268 0.98075 114.924 71.0842)" fill="#E7820E"/>
</g>
</g>
<defs>
<clipPath id="clip0_265_332">
<rect width="145" height="126" fill="white" transform="translate(0 0.362305)"/>
</clipPath>
</defs>
</svg>
