<svg width="90" height="270" viewBox="0 0 90 270" fill="none" xmlns="http://www.w3.org/2000/svg">
<g clip-path="url(#clip0_238_2968)">
<rect width="34.0835" height="34.0835" transform="matrix(-0.965926 0.258819 0.258819 0.965926 25.2498 3.72461)" stroke="#FFF480" stroke-width="3"/>
<rect width="34.0835" height="34.0835" transform="matrix(-0.965926 0.258819 0.258819 0.965926 -7.67236 12.5459)" stroke="#FFF480" stroke-width="3"/>
<rect width="34.0835" height="34.0835" transform="matrix(-0.965926 0.258819 0.258819 0.965926 34.0713 36.6465)" stroke="#FFF480" stroke-width="3"/>
<rect width="34.0835" height="34.0835" transform="matrix(-0.965926 0.258819 0.258819 0.965926 1.14917 45.4678)" stroke="#FFF480" stroke-width="3"/>
<rect width="34.0835" height="34.0835" transform="matrix(-0.965926 0.258819 0.258819 0.965926 42.8926 69.5688)" stroke="#FFF480" stroke-width="3"/>
<rect width="34.0835" height="34.0835" transform="matrix(-0.965926 0.258819 0.258819 0.965926 9.97046 78.3901)" stroke="#FFF480" stroke-width="3"/>
<rect width="34.0835" height="34.0835" transform="matrix(-0.965926 0.258819 0.258819 0.965926 51.7141 102.491)" stroke="#FFF480" stroke-width="3"/>
<rect width="34.0835" height="34.0835" transform="matrix(-0.965926 0.258819 0.258819 0.965926 18.792 111.312)" stroke="#FFF480" stroke-width="3"/>
<rect width="34.0835" height="34.0835" transform="matrix(-0.965926 0.258819 0.258819 0.965926 60.5356 135.413)" stroke="#FFF480" stroke-width="3"/>
<rect width="34.0835" height="34.0835" transform="matrix(-0.965926 0.258819 0.258819 0.965926 27.6135 144.234)" stroke="#FFF480" stroke-width="3"/>
<rect width="34.0835" height="34.0835" transform="matrix(-0.965926 0.258819 0.258819 0.965926 -5.30859 153.056)" stroke="#FFF480" stroke-width="3"/>
<rect width="34.0835" height="34.0835" transform="matrix(-0.965926 0.258819 0.258819 0.965926 69.3569 168.335)" stroke="#FFF480" stroke-width="3"/>
<rect width="34.0835" height="34.0835" transform="matrix(-0.965926 0.258819 0.258819 0.965926 36.4348 177.156)" stroke="#FFF480" stroke-width="3"/>
<rect width="34.0835" height="34.0835" transform="matrix(-0.965926 0.258819 0.258819 0.965926 3.5127 185.978)" stroke="#FFF480" stroke-width="3"/>
<rect width="34.0835" height="34.0835" transform="matrix(-0.965926 0.258819 0.258819 0.965926 78.1785 201.257)" stroke="#FFF480" stroke-width="3"/>
<rect width="34.0835" height="34.0835" transform="matrix(-0.965926 0.258819 0.258819 0.965926 45.2563 210.079)" stroke="#FFF480" stroke-width="3"/>
<rect width="34.0835" height="34.0835" transform="matrix(-0.965926 0.258819 0.258819 0.965926 12.3342 218.9)" stroke="#FFF480" stroke-width="3"/>
</g>
<defs>
<clipPath id="clip0_238_2968">
<rect width="90" height="269" fill="white" transform="matrix(-1 0 0 1 90 0.724609)"/>
</clipPath>
</defs>
</svg>
