<svg width="211" height="201" viewBox="0 0 211 201" fill="none" xmlns="http://www.w3.org/2000/svg">
<circle cx="13.2739" cy="3.58347" r="3.58347" fill="#FFF480"/>
<circle cx="40.9643" cy="3.58347" r="3.58347" fill="#FFF480"/>
<circle cx="68.6548" cy="3.58347" r="3.58347" fill="#FFF480"/>
<circle cx="96.3452" cy="3.58347" r="3.58347" fill="#FFF480"/>
<circle cx="124.036" cy="3.58347" r="3.58347" fill="#FFF480"/>
<circle cx="151.726" cy="3.58347" r="3.58347" fill="#FFF480"/>
<circle cx="179.417" cy="3.58347" r="3.58347" fill="#FFF480"/>
<circle cx="207.107" cy="3.58347" r="3.58347" fill="#FFF480"/>
<circle cx="13.2739" cy="31.2739" r="3.58347" fill="#FFF480"/>
<circle cx="40.9643" cy="31.2739" r="3.58347" fill="#FFF480"/>
<circle cx="68.6548" cy="31.2739" r="3.58347" fill="#FFF480"/>
<circle cx="96.3452" cy="31.2739" r="3.58347" fill="#FFF480"/>
<circle cx="124.036" cy="31.2739" r="3.58347" fill="#FFF480"/>
<circle cx="151.726" cy="31.2739" r="3.58347" fill="#FFF480"/>
<circle cx="179.417" cy="31.2739" r="3.58347" fill="#FFF480"/>
<circle cx="207.107" cy="31.2739" r="3.58347" fill="#FFF480"/>
<circle cx="13.2739" cy="58.9643" r="3.58347" fill="#FFF480"/>
<circle cx="40.9643" cy="58.9643" r="3.58347" fill="#FFF480"/>
<circle cx="68.6548" cy="58.9643" r="3.58347" fill="#FFF480"/>
<circle cx="96.3452" cy="58.9643" r="3.58347" fill="#FFF480"/>
<circle cx="124.036" cy="58.9643" r="3.58347" fill="#FFF480"/>
<circle cx="151.726" cy="58.9643" r="3.58347" fill="#FFF480"/>
<circle cx="179.417" cy="58.9643" r="3.58347" fill="#FFF480"/>
<circle cx="207.107" cy="58.9643" r="3.58347" fill="#FFF480"/>
<circle cx="13.2739" cy="86.6547" r="3.58347" fill="#FFF480"/>
<circle cx="40.9643" cy="86.6547" r="3.58347" fill="#FFF480"/>
<circle cx="68.6548" cy="86.6547" r="3.58347" fill="#FFF480"/>
<circle cx="96.3452" cy="86.6547" r="3.58347" fill="#FFF480"/>
<circle cx="124.036" cy="86.6547" r="3.58347" fill="#FFF480"/>
<circle cx="151.726" cy="86.6547" r="3.58347" fill="#FFF480"/>
<circle cx="179.417" cy="86.6547" r="3.58347" fill="#FFF480"/>
<circle cx="207.107" cy="86.6547" r="3.58347" fill="#FFF480"/>
<circle cx="13.2739" cy="114.345" r="3.58347" fill="#FFF480"/>
<circle cx="40.9643" cy="114.345" r="3.58347" fill="#FFF480"/>
<circle cx="68.6548" cy="114.345" r="3.58347" fill="#FFF480"/>
<circle cx="96.3452" cy="114.345" r="3.58347" fill="#FFF480"/>
<circle cx="124.036" cy="114.345" r="3.58347" fill="#FFF480"/>
<circle cx="151.726" cy="114.345" r="3.58347" fill="#FFF480"/>
<circle cx="179.417" cy="114.345" r="3.58347" fill="#FFF480"/>
<circle cx="207.107" cy="114.345" r="3.58347" fill="#FFF480"/>
<circle cx="13.2739" cy="142.036" r="3.58347" fill="#FFF480"/>
<circle cx="40.9643" cy="142.036" r="3.58347" fill="#FFF480"/>
<circle cx="68.6548" cy="142.036" r="3.58347" fill="#FFF480"/>
<circle cx="96.3452" cy="142.036" r="3.58347" fill="#FFF480"/>
<circle cx="124.036" cy="142.036" r="3.58347" fill="#FFF480"/>
<circle cx="151.726" cy="142.036" r="3.58347" fill="#FFF480"/>
<circle cx="179.417" cy="142.036" r="3.58347" fill="#FFF480"/>
<circle cx="207.107" cy="142.036" r="3.58347" fill="#FFF480"/>
<circle cx="13.2739" cy="169.726" r="3.58347" fill="#FFF480"/>
<circle cx="40.9643" cy="169.726" r="3.58347" fill="#FFF480"/>
<circle cx="68.6548" cy="169.726" r="3.58347" fill="#FFF480"/>
<circle cx="96.3452" cy="169.726" r="3.58347" fill="#FFF480"/>
<circle cx="124.036" cy="169.726" r="3.58347" fill="#FFF480"/>
<circle cx="151.726" cy="169.726" r="3.58347" fill="#FFF480"/>
<circle cx="179.417" cy="169.726" r="3.58347" fill="#FFF480"/>
<circle cx="207.107" cy="169.726" r="3.58347" fill="#FFF480"/>
<circle cx="13.2739" cy="197.417" r="3.58347" fill="#FFF480"/>
<circle cx="40.9643" cy="197.417" r="3.58347" fill="#FFF480"/>
<circle cx="68.6548" cy="197.417" r="3.58347" fill="#FFF480"/>
<circle cx="96.3452" cy="197.417" r="3.58347" fill="#FFF480"/>
<circle cx="124.036" cy="197.417" r="3.58347" fill="#FFF480"/>
<circle cx="151.726" cy="197.417" r="3.58347" fill="#FFF480"/>
<circle cx="179.417" cy="197.417" r="3.58347" fill="#FFF480"/>
<circle cx="207.107" cy="197.417" r="3.58347" fill="#FFF480"/>
</svg>
