<svg width="33" height="32" viewBox="0 0 33 32" fill="none" xmlns="http://www.w3.org/2000/svg">
<g clip-path="url(#clip0_347_419)">
<path fill-rule="evenodd" clip-rule="evenodd" d="M32.5 16C32.5 24.8366 25.3366 32 16.5 32C7.66344 32 0.5 24.8366 0.5 16C0.5 7.16344 7.66344 0 16.5 0C25.3366 0 32.5 7.16344 32.5 16ZM16.2639 15.536C15.3655 13.6776 12.9184 10.2146 10.6434 8.50664C9.00193 7.27425 6.34204 6.32071 6.34204 9.35495C6.34204 9.96086 6.68947 14.4454 6.89325 15.1736C7.60145 17.7048 10.1825 18.3504 12.4785 17.9596C8.46526 18.6425 7.44438 20.9051 9.6492 23.1675C13.8366 27.4644 15.6677 22.0897 16.137 20.7123L16.137 20.7122L16.1372 20.7117C16.2231 20.4595 16.2632 20.3417 16.2638 20.442C16.2644 20.3416 16.3047 20.4597 16.3907 20.7122L16.3909 20.7128C16.8607 22.091 18.6919 27.4636 22.8785 23.1675C25.0833 20.9051 24.0624 18.6426 20.0492 17.9596C22.3451 18.3504 24.9261 17.7048 25.6344 15.1736C25.8382 14.4455 26.1857 9.96093 26.1857 9.35495C26.1857 6.32071 23.5259 7.27425 21.8844 8.50664C19.6093 10.2146 17.1624 13.6777 16.2639 15.536Z" fill="black"/>
</g>
<defs>
<clipPath id="clip0_347_419">
<rect width="33" height="32" fill="white"/>
</clipPath>
</defs>
</svg>
