<svg width="33" height="32" viewBox="0 0 33 32" fill="none" xmlns="http://www.w3.org/2000/svg">
<circle cx="16.5" cy="16.0001" r="16" fill="#FFF480"/>
<path d="M10.6434 8.50664C12.9184 10.2146 15.3655 13.6776 16.2639 15.536C17.1624 13.6777 19.6093 10.2146 21.8844 8.50664C23.5259 7.27425 26.1857 6.32071 26.1857 9.35495C26.1857 9.96093 25.8382 14.4455 25.6344 15.1736C24.9261 17.7048 22.3451 18.3504 20.0492 17.9596C24.0624 18.6426 25.0833 20.9051 22.8785 23.1675C18.6912 27.4643 16.8601 22.0894 16.3907 20.7122C16.3047 20.4597 16.2644 20.3416 16.2638 20.442C16.2632 20.3416 16.223 20.4597 16.137 20.7122C15.6678 22.0894 13.8367 27.4645 9.64917 23.1675C7.44435 20.9051 8.46523 18.6425 12.4785 17.9596C10.1825 18.3504 7.60142 17.7048 6.89322 15.1736C6.68944 14.4454 6.34201 9.96086 6.34201 9.35495C6.34201 6.32071 9.0018 7.27425 10.6433 8.50664H10.6434Z" fill="#E7820E"/>
</svg>
