<svg xmlns="http://www.w3.org/2000/svg" fill="none" viewBox="0 0 491 690">
  <path fill="#FF6C6C" d="M216.032.232c-3.324.252-7.253.705-8.663.956-11.685 2.165-15.21 2.92-18.786 4.028-.706.201-2.972.906-5.037 1.51s-4.18 1.309-4.634 1.56c-.503.252-1.309.454-1.813.454s-1.108.2-1.36.402c-.302.202-1.41.705-2.518 1.057-2.216.705-6.85 2.366-8.814 3.172a52.89 52.89 0 0 1-2.267.906c-1.662.654-6.849 3.02-10.073 4.631-2.77 1.41-4.986 2.618-10.677 5.74-3.073 1.66-13.902 8.96-17.78 11.98C108.954 47.854 98.024 59.08 86.037 75.19c-7.807 10.47-19.089 30.003-25.334 43.897-2.82 6.343-4.432 10.018-5.087 11.729a85.425 85.425 0 0 1-1.007 2.517c-.353.806-.857 2.014-1.058 2.618-.403 1.107-.806 2.014-1.914 4.782-.252.655-.957 2.517-1.561 4.179-.605 1.661-1.31 3.473-1.511 4.027-.252.554-.907 2.467-1.511 4.279-.554 1.812-1.26 3.675-1.511 4.128-.303.503-.504 1.359-.504 1.862 0 .554-.201 1.158-.504 1.309-.251.151-.503.755-.503 1.309 0 .503-.202 1.359-.454 1.863-.251.453-.755 1.862-1.057 3.121-.353 1.258-.806 2.718-1.008 3.272-.201.554-.654 2.013-1.007 3.272-.352 1.259-.806 2.819-1.007 3.524-.202.705-.655 2.265-1.008 3.524-.352 1.258-.805 2.819-1.007 3.524-.201.704-.655 2.265-1.007 3.523-.302 1.259-.806 2.97-1.058 3.826-.252.856-.453 2.014-.453 2.618 0 .554-.202 1.158-.453 1.309-.252.151-.554 1.007-.706 1.913-.15.906-.554 2.668-.856 3.926a452.356 452.356 0 0 0-1.007 4.279 709.23 709.23 0 0 1-2.116 9.062c-.251 1.107-.654 2.97-.956 4.127-1.26 5.84-1.512 6.847-1.914 8.81-.252 1.208-.705 3.524-1.058 5.185-.353 1.661-.806 4.027-1.058 5.286-.906 4.38-2.014 10.521-2.921 15.706-.252 1.46-.705 4.128-1.058 5.94-.906 4.984-1.41 8.155-3.072 19.23-.302 2.014-.705 4.934-.957 6.444-.252 1.51-.705 4.48-1.007 6.544a424.425 424.425 0 0 1-1.008 6.545c-.252 1.51-.705 4.48-1.007 6.544a419.855 419.855 0 0 1-1.007 6.544c-.403 2.718-.957 6.343-2.065 13.693-.303 2.013-.705 5.034-.957 6.695a798.417 798.417 0 0 0-2.065 14.347c-.302 2.064-.705 5.135-.957 6.796-.202 1.661-.655 5.034-.957 7.551-.302 2.467-.806 6.343-1.058 8.558-1.712 13.29-3.173 30.758-4.13 48.075-1.712 30.758.202 62.322 5.037 85.579 1.31 6.242 2.317 10.521 3.072 13.089.252.956.655 2.315.806 3.02.201.705.504 1.712.755 2.265.202.554.655 2.014 1.008 3.273.352 1.258.806 2.718 1.007 3.272.252.553.907 2.466 1.511 4.279 1.108 3.322 1.31 3.876 2.67 7.047.453.957 1.158 2.769 1.662 4.027 1.158 2.92 6.547 13.441 7.806 15.153.504.755.957 1.51.957 1.661 0 .856 9.771 14.951 12.44 17.871.605.655 2.418 2.769 4.03 4.631 1.612 1.863 3.072 3.424 3.324 3.424.202.05-.957-1.964-2.619-4.43-4.13-6.092-5.037-7.702-9.318-16.411-4.08-8.256-4.835-9.968-6.094-13.341a54.17 54.17 0 0 0-1.31-3.272c-.553-1.309-2.971-8.608-3.525-10.722-.453-1.511-.756-2.719-2.015-7.048-.302-1.007-.705-2.769-.957-3.876a438.25 438.25 0 0 0-1.007-4.279c-1.108-4.783-1.511-6.897-3.072-16.109-2.116-12.535-3.677-34.584-3.627-51.096 0-19.331 1.914-47.773 4.684-70.628 1.41-11.628 2.569-20.438 4.03-30.556a588.87 588.87 0 0 0 1.007-7.048c.302-2.215.755-5.286 1.007-6.796.252-1.51.655-4.379.957-6.292.302-1.964.756-4.984 1.008-6.796.856-5.336 1.56-10.069 2.115-13.844.302-1.963.705-4.782.957-6.293.252-1.51.705-4.48 1.007-6.544.554-3.624.856-5.739 2.015-13.34 1.058-7.199 2.87-17.72 4.08-24.164.251-1.409.705-3.674.956-5.034.806-4.48 2.267-11.679 2.972-14.85.302-1.259.756-3.423 1.058-4.782.252-1.41.755-3.524 1.007-4.783.302-1.258.756-3.222 1.058-4.43.252-1.158.654-3.07.906-4.279.554-2.366 1.36-5.738 2.065-8.407.252-.956.706-2.718 1.008-3.926 1.108-4.682 1.46-5.991 1.964-7.803a366.37 366.37 0 0 0 1.108-3.775c.302-1.007.705-2.668.957-3.625.756-3.071 1.058-4.229 1.511-5.286.201-.553.655-2.013 1.007-3.272 1.159-4.077 1.662-5.789 2.015-6.796.201-.554 1.561-4.631 2.972-9.061 1.46-4.43 2.82-8.508 3.021-9.061.252-.554.957-2.366 1.562-4.028a293.59 293.59 0 0 1 1.561-4.178c.252-.604.655-1.611.907-2.265.655-1.712 1.36-3.474 2.065-5.135.352-.856.806-1.963 1.007-2.517.252-.554.856-2.014 1.41-3.272.504-1.259 1.41-3.272 1.914-4.531 2.62-6.242 12.44-25.17 16.319-31.463 1.158-1.963 2.569-4.279 3.123-5.235 2.72-4.782 10.476-15.404 17.074-23.459 3.576-4.38 14.455-15.404 19.844-20.136 5.238-4.58 15.714-12.384 21.305-15.807 7.152-4.43 10.124-6.04 16.721-9.363 5.591-2.82 9.52-4.581 12.844-5.79a53.009 53.009 0 0 0 2.266-.905c.705-.252 2.065-.755 3.022-1.108.957-.352 2.216-.805 2.77-1.007.554-.251 2.619-.956 4.533-1.56 1.965-.604 3.979-1.259 4.533-1.46.554-.202 2.015-.655 3.274-1.007 1.259-.352 2.821-.805 3.526-1.007 3.576-1.107 9.116-2.265 18.786-3.977 6.044-1.107 17.83-1.61 25.083-1.057 8.159.604 14.455 1.309 18.585 2.064 6.95 1.36 7.807 1.56 13.347 3.02 7.253 1.913 12.239 3.424 13.448 4.028.503.252 1.208.453 1.561.453.604 0 9.972 3.624 14.203 5.537 1.108.504 3.173 1.41 4.533 2.014 3.224 1.41 13.851 6.746 19.391 9.766 2.367 1.258 7.354 3.776 11.081 5.638 17.678 8.608 33.09 16.613 40.444 20.942 1.309.755 2.518 1.41 2.669 1.41.151 0 1.259.654 2.468 1.51 1.209.805 2.317 1.51 2.518 1.51.151 0 3.375 2.114 7.203 4.631 8.663 5.89 8.713 5.94 6.9 3.927-4.684-5.085-21.003-17.116-30.623-22.603-.906-.504-3.777-2.165-6.396-3.675-2.619-1.51-5.893-3.423-7.303-4.178-2.368-1.36-18.837-9.716-49.107-25.02-7.354-3.674-14.355-7.148-15.614-7.651-1.259-.504-3.274-1.41-4.533-1.913-2.921-1.259-4.533-1.964-5.792-2.417a52.746 52.746 0 0 1-2.266-.906c-.706-.302-3.526-1.258-6.296-2.164-2.77-.856-5.49-1.762-6.044-2.014a20.483 20.483 0 0 0-2.267-.654c-.705-.101-2.065-.454-3.022-.756-4.784-1.359-5.943-1.66-8.058-2.064a438.372 438.372 0 0 1-4.785-1.006C243.482.635 225.904-.523 216.032.232Zm214.963 106.42c2.065 3.02 4.533 6.997 5.54 8.809 2.015 3.575 8.865 17.368 10.073 20.137.403.956 1.108 2.668 1.612 3.775 1.159 2.719 1.511 3.524 2.77 7.048.605 1.661 1.31 3.473 1.562 4.027.201.554 1.359 3.927 2.518 7.551 1.158 3.574 2.266 6.947 2.518 7.4.252.504.454 1.359.454 1.863 0 .554.201 1.107.453 1.258.252.151.554.906.705 1.662.504 2.517 1.41 5.889 2.921 11.226.302.956.756 2.668 1.007 3.775.303 1.108.706 2.819.907 3.776.252.956.705 2.869 1.058 4.279.302 1.359.806 3.423 1.057 4.53.454 1.863.706 2.92 1.914 9.313.252 1.259.706 3.625 1.058 5.286 1.108 5.487 1.36 7.199 3.072 18.123.454 3.07 1.058 7.601 1.965 14.951 4.986 39.769 4.986 92.626 0 132.143-.252 2.316-.705 5.941-.957 8.055-.302 2.165-.756 5.437-1.008 7.299-.302 1.913-.755 4.833-1.057 6.545a231.459 231.459 0 0 1-1.965 11.477l-1.007 5.034a232.807 232.807 0 0 1-2.065 9.162c-.302 1.057-.705 2.769-1.007 3.776a480.83 480.83 0 0 0-.907 3.926c-.252 1.108-.806 3.021-1.209 4.279-.403 1.259-1.259 3.977-1.914 6.041-.604 2.064-1.309 4.229-1.561 4.783-.201.553-.856 2.466-1.46 4.279-.605 1.812-1.26 3.725-1.511 4.278-.202.554-1.008 2.568-1.763 4.531-.756 1.913-1.713 4.329-2.116 5.286-.403.956-.957 2.215-1.158 2.769-.806 2.064-2.569 5.789-7.253 15.353-4.785 9.716-6.699 13.29-9.771 18.526-.906 1.46-1.612 2.768-1.612 2.919 0 .151-.906 1.611-2.014 3.222-1.108 1.611-2.015 3.071-2.015 3.272 0 .151-3.425 5.437-7.656 11.73-6.799 10.219-14.052 20.287-22.06 30.556-3.475 4.481-30.572 38.36-32.033 40.021l-6.044 7.048c-5.238 6.141-24.175 25.422-28.557 29.147-11.534 9.665-24.529 19.331-31.429 23.308-9.267 5.285-23.168 12.132-27.6 13.541-1.109.353-2.217.856-2.519 1.057-.252.202-.957.403-1.561.403-.655 0-1.31.202-1.461.504-.151.251-.856.503-1.511.503-.654 0-1.309.201-1.46.453-.151.252-.907.554-1.662.705-.806.151-2.317.554-3.425.856-7.152 2.064-13.75 3.272-21.91 4.027-5.943.604-22.715.252-27.701-.554-8.562-1.359-14.707-2.718-22.917-5.034-2.619-.755-11.03-3.524-12.188-4.027a112.69 112.69 0 0 1-2.267-.906c-2.266-.906-7.756-3.272-11.483-4.934-4.432-2.013-16.52-8.205-20.751-10.622-1.058-.604-2.77-1.56-3.777-2.164a55.106 55.106 0 0 1-2.418-1.46c-.252-.201-1.36-.856-2.367-1.46-1.058-.604-2.72-1.51-3.677-2.064-.957-.554-2.569-1.46-3.526-2.014-.957-.553-2.568-1.459-3.525-2.013-.957-.554-2.569-1.46-3.526-2.014-.957-.554-2.619-1.46-3.626-2.064-1.058-.604-2.166-1.258-2.418-1.46-.302-.251-1.763-1.107-3.274-1.913-3.576-1.912-5.641-3.07-9.821-5.587-1.864-1.158-3.475-2.064-3.576-2.064-.1 0-1.41-.755-2.87-1.662-1.411-.956-4.534-2.919-6.901-4.379-8.31-5.236-15.865-10.219-17.124-11.276l-1.26-1.058 1.008 1.209c1.914 2.265 11.08 9.917 16.369 13.642 2.92 2.014 6.8 4.782 8.612 6.141 1.864 1.309 3.526 2.417 3.677 2.417.201 0 1.712.906 3.324 2.013 1.612 1.108 3.123 2.014 3.274 2.014.201 0 1.309.705 2.518 1.51 1.209.856 2.317 1.51 2.418 1.51.151 0 1.763.907 3.626 2.064 1.864 1.108 4.181 2.467 5.087 3.021.957.503 2.569 1.46 3.627 2.013 1.007.605 2.87 1.662 4.13 2.366 1.259.705 4.432 2.518 7.051 4.028 2.619 1.51 5.49 3.171 6.346 3.624.856.504 3.123 1.863 4.986 2.97 1.864 1.158 3.476 2.064 3.627 2.064.1 0 1.158.655 2.367 1.46 1.158.806 3.223 2.064 4.583 2.819 1.41.755 3.526 1.964 4.785 2.668 3.475 1.964 17.175 8.86 19.139 9.666.957.352 3.173 1.308 4.936 2.114 1.712.755 3.274 1.409 3.374 1.409.152 0 1.209.403 2.418.957 2.821 1.258 7.152 2.819 9.922 3.574 1.259.352 2.821.806 3.526 1.007.705.201 2.266.654 3.525 1.007 1.26.352 2.821.805 3.526 1.007.705.201 2.619.654 4.281 1.006 1.662.302 3.475.705 4.029.856 4.13 1.057 16.521 2.266 24.176 2.316 12.491.101 31.681-3.272 41.3-7.199.554-.252 2.468-.956 4.282-1.56 6.497-2.215 24.326-10.924 28.708-14.045.806-.554 1.562-1.007 1.713-1.007.604 0 7.958-5.135 13.901-9.615 15.815-12.032 27.752-23.207 41.804-39.216 2.065-2.366 3.878-4.379 4.029-4.53 2.921-2.819 31.529-38.561 43.265-54.116 5.892-7.753 22.715-32.369 22.715-33.225 0-.151.705-1.309 1.511-2.517.856-1.208 1.511-2.316 1.511-2.416 0-.151.856-1.712 1.914-3.424 4.23-6.997 16.217-30.556 16.217-31.915 0-.151.454-1.36 1.058-2.669a71.983 71.983 0 0 0 1.511-3.523c.756-1.913 1.461-3.575 1.914-4.783.252-.604.705-1.913 1.058-2.869.352-.957.806-2.215 1.007-2.769.202-.554.655-1.812 1.007-2.769.353-.956.806-2.215 1.008-2.768.201-.554.906-2.719 1.511-4.783.654-2.064 1.511-4.782 1.914-6.04a68.354 68.354 0 0 0 1.158-4.179c.252-1.007.655-2.718.957-3.775 1.612-6.444 2.317-9.464 3.072-13.19l1.008-5.034c.805-3.926 1.46-7.702 1.964-11.326.302-1.963.755-4.984 1.007-6.796 2.367-15.857 3.878-30.96 5.138-50.592.805-13.592.856-48.831 0-62.423-1.461-24.113-3.526-42.235-7.152-62.925-.252-1.41-.605-3.323-.756-4.279-.151-.957-.504-2.668-.755-3.776-.202-1.107-.706-3.373-1.008-5.034-.302-1.661-.755-3.826-1.007-4.782-.252-.957-.705-2.92-1.007-4.279-.303-1.41-.756-3.323-1.008-4.279-.252-.957-.705-2.92-1.007-4.279-.353-1.41-.756-3.071-1.007-3.776-.202-.704-.655-2.215-.957-3.423-.303-1.158-.806-3.07-1.108-4.279-.655-2.517-.756-2.718-3.476-11.427-1.158-3.725-2.316-7.249-2.518-7.803-.201-.553-.655-1.812-1.007-2.768-.353-.957-.806-2.215-1.008-2.769-.201-.554-.906-2.366-1.511-4.027-1.41-3.776-1.712-4.682-2.518-6.545-.352-.855-.806-1.963-1.007-2.517-1.713-4.379-10.275-20.941-12.944-25.069-.806-1.158-1.612-2.517-1.914-2.92-3.073-4.933-11.081-15.203-15.664-19.985l-2.72-2.87 3.677 5.538Z"/>
</svg>