<svg width="151" height="40" viewBox="0 0 151 40" fill="none" xmlns="http://www.w3.org/2000/svg">
<g clip-path="url(#clip0_290_405)">
<path d="M44.3388 29.0292C46.7933 29.0292 48.032 27.7645 48.5717 26.9031H48.8149C48.9217 27.8179 49.5695 28.6792 50.8365 28.6792H53.2354V25.9872H52.6161C52.1842 25.9872 51.9683 25.7452 51.9683 25.369V14.5758H48.7865V16.2986H48.5445C47.9251 15.4372 46.6308 14.2258 44.2581 14.2258C40.4842 14.2258 37.6797 17.3474 37.6797 21.627C37.6797 25.9065 40.5376 29.0292 44.3388 29.0292ZM44.9047 25.9611C42.6672 25.9611 40.9161 24.319 40.9161 21.6542C40.9161 19.0429 42.6138 17.2679 44.8786 17.2679C47.0354 17.2679 48.8411 18.8554 48.8411 21.6542C48.8411 24.0497 47.3036 25.9611 44.9047 25.9611ZM55.1149 34.1486H58.2956V26.9031H58.5376C59.1308 27.7645 60.3979 29.0292 62.9058 29.0292C66.6797 29.0292 69.4297 25.8531 69.4297 21.627C69.4297 17.3747 66.4911 14.2258 62.6899 14.2258C60.2638 14.2258 59.0763 15.544 58.5104 16.2713H58.2683V14.5758H55.1138L55.1149 34.1486ZM62.232 26.0417C60.0479 26.0417 58.2411 24.427 58.2411 21.627C58.2411 19.2315 59.7786 17.2133 62.1774 17.2133C64.4161 17.2133 66.1672 18.9633 66.1672 21.627C66.1672 24.2383 64.4695 26.0417 62.232 26.0417ZM71.0717 34.1486H74.2536V26.9031H74.4956C75.0888 27.7645 76.3558 29.0292 78.8626 29.0292C82.6365 29.0292 85.124 25.8531 85.124 21.627C85.124 17.3747 82.4479 14.2258 78.6467 14.2258C76.2206 14.2258 75.0342 15.544 74.4683 16.2713H74.2251V14.5758H71.0717V34.1486ZM78.1888 26.0417C76.0047 26.0417 74.199 24.427 74.199 21.627C74.199 19.2315 75.7354 17.2133 78.1342 17.2133C80.3729 17.2133 82.1251 18.9633 82.1251 21.627C82.1251 24.2383 80.4263 26.0417 78.1888 26.0417ZM89.3308 29.0065H93.832L96.3933 17.944H96.5558L99.1161 29.0065H103.592L107.175 14.9031H103.969L101.408 25.9929H101.165L98.6047 14.902H94.3717L91.7831 25.9929H91.5411L89.007 14.902H85.6092L89.3308 29.0065ZM108.788 29.0065H111.969V22.0361C111.969 19.3713 113.208 17.7292 115.527 17.7292H116.929V14.5531H115.877C114.071 14.5531 112.696 15.7917 112.157 16.9758H111.941V14.9031H108.788V29.0065ZM132.716 29.0065H135.197V26.1804H132.743C131.773 26.1804 131.368 25.7497 131.368 24.7542V17.702H135.358V14.9031H131.368V10.9463H128.349V14.9031H125.707V17.702H128.16V24.7815C128.16 27.769 129.966 29.0065 132.716 29.0065ZM143.731 29.0292C146.669 29.0292 149.258 27.5747 150.174 24.6429L147.263 23.9417C146.75 25.5031 145.268 26.3111 143.705 26.3111C141.385 26.3111 139.849 24.8031 139.822 22.4349H150.525V21.5463C150.525 17.3474 147.91 14.2258 143.597 14.2258C139.794 14.2258 136.533 17.2133 136.533 21.6542C136.533 25.9611 139.417 29.0292 143.731 29.0292ZM139.849 20.1202C140.038 18.4247 141.574 16.9974 143.597 16.9974C145.538 16.9974 147.129 18.2088 147.29 20.1202H139.849Z" fill="white"/>
<path fill-rule="evenodd" clip-rule="evenodd" d="M124.292 29.0067H121.11V17.7022H118.631V14.9033H124.292V29.0067Z" fill="white"/>
<path d="M122.466 12.9451C123.625 12.9451 124.488 12.0837 124.488 10.9531C124.488 9.85078 123.625 8.98828 122.466 8.98828C121.306 8.98828 120.443 9.84964 120.443 10.9542C120.443 12.0837 121.306 12.9451 122.466 12.9451Z" fill="white"/>
<path d="M28.3001 25.5487V31.7737H12.7421C8.20915 31.7737 4.2512 29.2703 2.13415 25.5487C1.19738 23.8992 0.646833 22.0587 0.523926 20.1657L0.523926 18.4839C0.579199 17.6201 0.7243 16.7643 0.95688 15.9305C2.41143 10.7032 7.13756 6.87598 12.741 6.87598C18.3478 6.87598 23.0728 10.7055 24.5262 15.9294H17.8739C16.783 14.226 14.8921 13.0998 12.7421 13.0998C10.5921 13.0998 8.70233 14.226 7.61029 15.9294C7.27276 16.4539 7.0161 17.0262 6.84893 17.6271C6.69571 18.18 6.61849 18.7511 6.61938 19.3248C6.61686 20.1699 6.78575 21.0067 7.11584 21.7847C7.44593 22.5626 7.93036 23.2656 8.53983 23.851C9.66744 24.9404 11.1742 25.5491 12.7421 25.5487H28.2989H28.3001Z" fill="white"/>
<path d="M28.3002 17.626V23.851H16.9434C17.553 23.2657 18.0377 22.5628 18.368 21.7848C18.6983 21.0069 18.8673 20.17 18.8649 19.3248C18.8655 18.7511 18.7879 18.1799 18.6343 17.6271H28.3002V17.626Z" fill="white"/>
</g>
<defs>
<clipPath id="clip0_290_405">
<rect width="150" height="39" fill="white" transform="translate(0.523926 0.875977)"/>
</clipPath>
</defs>
</svg>
