<svg width="151" height="40" viewBox="0 0 151 40" fill="none" xmlns="http://www.w3.org/2000/svg">
<g clip-path="url(#clip0_290_414)">
<path d="M39.7705 26.2076V15.3062H42.6571L46.511 24.1655H46.6032L50.4263 15.3062H53.3283V26.2076H51.4705V17.7014H51.3629L47.6473 26.2076H45.4517L41.7513 17.7014H41.6437V26.2076H39.7705Z" fill="white"/>
<path d="M61.5145 26.3916C57.5838 26.3916 55.1118 24.0884 55.1118 20.7566C55.1118 17.4247 57.5838 15.1216 61.5145 15.1216C65.4451 15.1216 67.8865 17.4247 67.8865 20.7566C67.8865 24.0884 65.4451 26.3916 61.5145 26.3916ZM57.1999 21.1711C57.1999 23.3054 58.7814 24.6872 61.5145 24.6872C64.2474 24.6872 65.7983 23.3054 65.7983 21.1711V20.342C65.7983 18.2078 64.2474 16.8259 61.5145 16.8259C58.7814 16.8259 57.1999 18.2078 57.1999 20.342V21.1711Z" fill="white"/>
<path d="M69.6692 26.2076V15.3062H72.4176L78.6667 24.0273H78.7743V15.3062H80.6475V26.2076H77.9298L71.6653 17.4864H71.5731V26.2076H69.6692Z" fill="white"/>
<path d="M88.834 26.3916C84.9034 26.3916 82.4314 24.0884 82.4314 20.7566C82.4314 17.4247 84.9034 15.1216 88.834 15.1216C92.7647 15.1216 95.2061 17.4247 95.2061 20.7566C95.2061 24.0884 92.7647 26.3916 88.834 26.3916ZM84.5196 21.1711C84.5196 23.3054 86.101 24.6872 88.834 24.6872C91.5671 24.6872 93.1179 23.3054 93.1179 21.1711V20.342C93.1179 18.2078 91.5671 16.8259 88.834 16.8259C86.101 16.8259 84.5196 18.2078 84.5196 20.342V21.1711Z" fill="white"/>
<path d="M102.699 26.3916C98.8756 26.3916 96.511 24.1498 96.511 20.7873C96.511 17.4247 98.9985 15.1216 102.898 15.1216C106.061 15.1216 108.165 16.4421 108.979 18.8987H106.875C106.153 17.4094 104.971 16.8105 102.898 16.8105C100.181 16.8105 98.5992 18.2078 98.5992 20.3881V21.2172C98.5992 23.4282 100.196 24.764 102.991 24.764C105.447 24.764 107.013 23.6432 107.013 22.292V21.8621H103.19V20.4188H108.948V26.2073H107.136V24.5951H107.029C106.353 25.716 104.679 26.3916 102.699 26.3916Z" fill="white"/>
<path d="M111.279 26.2076V15.3062H117.359C120.123 15.3062 121.766 16.5191 121.766 18.4384C121.766 19.7589 121.09 20.5419 119.723 20.9718V21.0793C121.182 21.2943 121.458 22.1541 121.458 23.2443V24.1809C121.458 24.9639 121.551 25.6395 122.38 26.1616V26.2076H120.123C119.493 25.6856 119.462 25.1482 119.462 24.488V23.4132C119.462 22.6915 119.247 21.8624 117.328 21.8624H113.275V26.2076H111.279ZM113.275 20.2656H117.374C118.986 20.2656 119.754 19.7435 119.754 18.7301V18.4231C119.754 17.4097 118.986 16.8876 117.359 16.8876H113.275V20.2656Z" fill="white"/>
<path d="M122.603 26.2076L127.654 15.3062H130.571L135.654 26.2076H133.519L132.076 23.0907H126.165L124.737 26.2076H122.603ZM126.886 21.4325H131.339L129.159 16.7341H129.051L126.886 21.4325Z" fill="white"/>
<path d="M136.829 26.2076V15.3062H139.715L143.569 24.1655H143.661L147.484 15.3062H150.386V26.2076H148.529V17.7014H148.421L144.705 26.2076H142.51L138.809 17.7014H138.702V26.2076H136.829Z" fill="white"/>
<path fill-rule="evenodd" clip-rule="evenodd" d="M12.0369 18.6738L9.35225 12.2759H7.6219L0.523926 29.1909H2.31515L8.48707 14.4904L11.143 20.8164L7.64888 29.1909H9.43428L12.0392 22.9509L14.659 29.1909H16.4785L19.0983 22.9509L21.7032 29.1909H23.4886L19.9945 20.8164L22.6504 14.4904L28.8223 29.1909H30.6136L23.5156 12.2759H21.7852L19.1005 18.6738L16.4311 12.2759H14.7063L12.0369 18.6738ZM18.2043 20.8094L15.5687 14.4957L12.9331 20.8094L15.5687 27.0903L18.2043 20.8094Z" fill="white"/>
</g>
<defs>
<clipPath id="clip0_290_414">
<rect width="150" height="39" fill="white" transform="translate(0.523926 0.875977)"/>
</clipPath>
</defs>
</svg>
