<svg width="151" height="40" viewBox="0 0 151 40" fill="none" xmlns="http://www.w3.org/2000/svg">
<g clip-path="url(#clip0_290_435)">
<path fill-rule="evenodd" clip-rule="evenodd" d="M38.5455 21.2656L35.7051 18.3833C35.5935 18.2703 35.5048 18.136 35.4444 17.9881C35.3839 17.8402 35.3528 17.6816 35.3528 17.5214V13.9942C35.3528 10.7342 35.0198 9.55187 34.3909 8.36119C33.776 7.18259 32.8266 6.21928 31.6661 5.59646C30.4923 4.95985 29.3267 4.61986 26.1161 4.61986H21.5212C21.4741 4.61919 21.4283 4.60451 21.3893 4.57765C21.3504 4.55079 21.32 4.51292 21.302 4.46871C21.284 4.42451 21.2792 4.37591 21.288 4.32892C21.2969 4.28193 21.3191 4.2386 21.3519 4.20431L24.1909 1.32205C24.4174 1.09242 24.7243 0.963595 25.0441 0.963868H26.6404C30.923 0.963868 32.4753 1.41579 34.0414 2.26508C35.5887 3.09561 36.8546 4.38019 37.6744 5.95185C38.5111 7.53989 38.957 9.11673 38.957 13.4625V21.0935C38.9571 21.1422 38.943 21.1898 38.9163 21.2303C38.8897 21.2708 38.8518 21.3023 38.8075 21.3208C38.7632 21.3392 38.7144 21.3439 38.6675 21.334C38.6206 21.3242 38.579 21.3004 38.5455 21.2656ZM18.9492 39.5483L21.7895 36.6661C21.9016 36.5523 22.0347 36.4621 22.1811 36.4007C22.3275 36.3392 22.4843 36.3077 22.6427 36.3079H26.1161C29.3281 36.3079 30.4923 35.9679 31.6675 35.3313C32.8274 34.7082 33.7763 33.7449 34.3909 32.5665C35.0184 31.3759 35.3542 30.1936 35.3542 26.9336V22.2716C35.3539 22.2231 35.3679 22.1757 35.3943 22.1354C35.4207 22.0951 35.4583 22.0637 35.5023 22.0452C35.5463 22.0268 35.5948 22.022 35.6414 22.0317C35.6881 22.0414 35.7309 22.065 35.7643 22.0995L38.6047 24.9817C38.716 25.0949 38.8043 25.2292 38.8645 25.3771C38.9248 25.525 38.9557 25.6835 38.9556 25.8436V27.4652C38.9556 31.811 38.5111 33.3878 37.673 34.9759C36.8529 36.547 35.5871 37.831 34.04 38.6613C32.4753 39.5119 30.9216 39.9639 26.6391 39.9639H19.1198C19.0723 39.9641 19.0259 39.95 18.9863 39.9234C18.9467 39.8967 18.9158 39.8587 18.8976 39.8142C18.8793 39.7697 18.8744 39.7206 18.8836 39.6733C18.8928 39.626 18.9156 39.5824 18.9492 39.5483ZM3.77576 22.5444L0.935394 19.6622C0.901794 19.6278 0.858946 19.6044 0.812266 19.5949C0.765585 19.5853 0.717167 19.5901 0.673131 19.6085C0.629095 19.6269 0.591418 19.6582 0.56486 19.6984C0.538303 19.7386 0.524058 19.7858 0.523926 19.8342L0.523926 27.4652C0.523926 31.811 0.969797 33.3864 1.80787 34.9759C2.62753 36.5468 3.89286 37.8309 5.43952 38.6613C7.00558 39.5119 8.55787 39.9639 12.8404 39.9639H14.4368C14.7566 39.9641 15.0635 39.8353 15.29 39.6057L18.129 36.7234C18.1625 36.6893 18.1853 36.6458 18.1945 36.5985C18.2037 36.5511 18.1989 36.5021 18.1806 36.4575C18.1623 36.413 18.1314 36.375 18.0918 36.3484C18.0523 36.3217 18.0058 36.3076 17.9583 36.3079H13.3648C10.1528 36.3079 8.9886 35.9679 7.81338 35.3313C6.65291 34.7085 5.70353 33.7451 5.0886 32.5665C4.46108 31.3745 4.12668 30.1936 4.12668 26.9336V23.4049C4.12669 23.245 4.0957 23.0868 4.03548 22.9391C3.97527 22.7915 3.88701 22.6573 3.77576 22.5444ZM20.5317 1.37942L17.6914 4.26167C17.5793 4.37544 17.4462 4.46562 17.2998 4.52708C17.1534 4.58854 16.9965 4.62007 16.8381 4.61986H13.3661C10.1542 4.61986 8.98998 4.95985 7.81475 5.59646C6.65429 6.21928 5.7049 7.18259 5.08998 8.36119C4.46246 9.55187 4.12805 10.7342 4.12805 13.9942V18.6562C4.12792 18.7046 4.11368 18.7519 4.08712 18.792C4.06056 18.8322 4.02288 18.8635 3.97885 18.8819C3.93481 18.9003 3.8864 18.9051 3.83971 18.8955C3.79303 18.886 3.75019 18.8626 3.71659 18.8283L0.876219 15.9446C0.764781 15.8317 0.676309 15.6976 0.615861 15.55C0.555413 15.4024 0.524173 15.244 0.523926 15.0841L0.523926 13.4625C0.523926 9.11673 0.969797 7.53989 1.80787 5.95185C2.6276 4.38096 3.89291 3.09693 5.43952 2.26648C7.00558 1.41579 8.55787 0.963868 12.8404 0.963868H20.3611C20.4083 0.964267 20.4543 0.978744 20.4934 1.0055C20.5326 1.03226 20.5631 1.07012 20.5813 1.11438C20.5995 1.15864 20.6045 1.20735 20.5957 1.25447C20.5868 1.30158 20.5646 1.34503 20.5317 1.37942ZM28.6716 11.4365L32.5441 15.1933C32.5782 15.2264 32.621 15.2486 32.6674 15.2572C32.7138 15.2658 32.7616 15.2604 32.8049 15.2417C32.8483 15.2229 32.8853 15.1916 32.9114 15.1517C32.9374 15.1117 32.9513 15.0649 32.9514 15.017V11.9318C32.95 10.6378 32.4431 9.39724 31.5422 8.48311C30.6412 7.56897 29.4201 7.05607 28.1473 7.05718H19.0372C18.7185 7.05728 18.4128 7.18553 18.1868 7.41396L15.3437 10.2962C15.3096 10.3303 15.2864 10.3739 15.2769 10.4215C15.2675 10.4691 15.2722 10.5184 15.2905 10.5633C15.3089 10.6081 15.34 10.6463 15.3799 10.673C15.4197 10.6997 15.4665 10.7137 15.5143 10.7132H26.9459C27.2459 10.7132 27.5322 10.7691 27.795 10.8699C28.1157 10.9874 28.4143 11.1777 28.6716 11.4365ZM24.9326 33.462L28.6345 29.5304C28.8918 29.2701 29.0776 28.9665 29.1946 28.6419C29.2937 28.3747 29.3487 28.0837 29.3487 27.78V16.1797C29.3488 16.1312 29.3631 16.084 29.3896 16.0438C29.4162 16.0036 29.4539 15.9723 29.4979 15.9539C29.5419 15.9355 29.5904 15.9307 29.637 15.9403C29.6837 15.9499 29.7266 15.9733 29.7602 16.0076L32.6005 18.8926C32.8251 19.1208 32.9513 19.4303 32.9514 19.7531V28.9987C32.9504 30.2928 32.4438 31.5334 31.5431 32.4478C30.6425 33.3622 29.4215 33.8755 28.1487 33.8748H25.1074C25.0604 33.8746 25.0145 33.8606 24.9753 33.8343C24.9361 33.808 24.9053 33.7706 24.8867 33.7267C24.8682 33.6829 24.8626 33.6344 24.8708 33.5874C24.8789 33.5403 24.9004 33.4968 24.9326 33.462ZM10.8092 29.4898L6.93677 25.7345C6.90281 25.7014 6.86007 25.6792 6.81383 25.6706C6.76759 25.6619 6.71987 25.6672 6.67656 25.6858C6.63325 25.7044 6.59624 25.7355 6.57009 25.7752C6.54395 25.8149 6.52981 25.8616 6.52943 25.9094V28.9959C6.53089 30.29 7.03781 31.5305 7.93872 32.4446C8.83963 33.3588 10.0608 33.8717 11.3336 33.8706H20.4437C20.7626 33.8702 21.0684 33.7414 21.2941 33.5124L24.1372 30.6301C24.1708 30.596 24.1936 30.5525 24.2028 30.5051C24.212 30.4578 24.2071 30.4088 24.1888 30.3642C24.1705 30.3197 24.1397 30.2817 24.1001 30.255C24.0605 30.2284 24.014 30.2143 23.9666 30.2146H12.5349C12.2349 30.2146 11.9487 30.1586 11.6845 30.0579C11.3554 29.9359 11.0566 29.742 10.8092 29.4898ZM14.5482 7.46853L10.8464 11.4002C10.5984 11.6511 10.4076 11.9544 10.2877 12.2886C10.1872 12.5573 10.1322 12.8483 10.1322 13.1505V24.7523C10.1324 24.8009 10.1184 24.8484 10.0918 24.8888C10.0653 24.9293 10.0275 24.9607 9.9832 24.979C9.93894 24.9974 9.89029 25.0019 9.84351 24.9919C9.79673 24.9819 9.75397 24.9579 9.72071 24.923L6.88172 22.0407C6.65717 21.8125 6.53094 21.503 6.53081 21.1802V11.9318C6.53227 10.6378 7.03919 9.39724 7.9401 8.48311C8.84101 7.56897 10.0621 7.05607 11.3349 7.05718H14.3762C14.4228 7.0578 14.4682 7.07215 14.5069 7.09849C14.5457 7.12483 14.5761 7.16202 14.5944 7.20556C14.6128 7.2491 14.6183 7.29712 14.6103 7.3438C14.6024 7.39047 14.5813 7.4338 14.5496 7.46853H14.5482ZM50.9212 12.8245H49.9909C49.2175 12.8245 48.59 13.4597 48.59 14.2432V34.2791C48.59 35.064 49.2175 35.6992 49.9909 35.6992H50.851C51.6258 35.6992 52.2533 35.064 52.2533 34.2805V26.4522C52.2533 26.4005 52.2946 26.3599 52.3441 26.3599C52.5285 26.6173 52.7625 26.8818 53.0459 27.1504C53.3322 27.4205 53.679 27.6737 54.0849 27.9102C54.4923 28.148 54.9602 28.3411 55.4886 28.4922C56.0869 28.6509 56.7034 28.7266 57.3216 28.7175C58.2917 28.7284 59.2523 28.5229 60.1358 28.1156C61.0193 27.7082 61.8043 27.109 62.4354 26.3599C63.0727 25.5974 63.5642 24.7204 63.8845 23.7743C64.2313 22.7837 64.4033 21.7175 64.4033 20.5758C64.4122 19.4899 64.2477 18.4097 63.9161 17.3773C63.6129 16.4264 63.1248 15.5471 62.4808 14.7917C61.8466 14.0572 61.0661 13.4682 60.1909 13.0637C59.2964 12.644 58.2877 12.4341 57.1689 12.4341C56.1299 12.4341 55.1638 12.6482 54.268 13.0791C53.3735 13.5101 52.6606 14.1985 52.1308 15.1471C52.1229 15.1471 52.115 15.1455 52.1076 15.1424C52.1003 15.1393 52.0936 15.1348 52.088 15.1291C52.0824 15.1233 52.0779 15.1166 52.0749 15.1091C52.0718 15.1016 52.0703 15.0936 52.0703 15.0855V13.9858C52.0699 13.8327 52.0399 13.6812 51.9819 13.54C51.924 13.3987 51.8393 13.2704 51.7326 13.1625C51.6259 13.0545 51.4993 12.969 51.3601 12.9107C51.2208 12.8525 51.0717 12.8227 50.9212 12.8231V12.8245ZM60.451 18.8339C60.6437 19.3935 60.74 19.9756 60.74 20.5786C60.74 21.1816 60.6437 21.7637 60.451 22.3233C60.2665 22.8724 59.9757 23.3783 59.5956 23.8112C59.2155 24.244 58.7539 24.5949 58.2381 24.8432C57.6738 25.1094 57.0574 25.2419 56.4354 25.2308C55.8388 25.2414 55.2471 25.1197 54.7014 24.8742C54.1558 24.6287 53.6693 24.2653 53.2758 23.8092C52.8978 23.3758 52.6074 22.8709 52.4212 22.3233C52.2285 21.7637 52.1322 21.1816 52.1322 20.5786C52.1322 19.9756 52.2285 19.3935 52.4212 18.8339C52.6056 18.2847 52.8964 17.7788 53.2765 17.346C53.6566 16.9131 54.1182 16.5622 54.634 16.314C55.1983 16.0477 55.8147 15.9151 56.4368 15.9264C57.0332 15.9159 57.6246 16.0377 58.17 16.2832C58.7155 16.5287 59.2017 16.892 59.595 17.348C59.9721 17.7789 60.257 18.2742 60.451 18.8339ZM70.7322 12.8245H69.6836C68.9088 12.8245 68.2813 13.4597 68.2813 14.2432V26.914C68.2813 27.6975 68.9088 28.3327 69.6836 28.3327H70.5437C71.317 28.3327 71.9446 27.6975 71.9446 26.914V20.0301C71.9446 19.8133 71.99 19.4901 72.0822 19.0591C72.1744 18.6296 72.3574 18.1986 72.6326 17.7677C72.9079 17.3368 73.3028 16.9548 73.823 16.6204C74.3418 16.286 75.0285 16.1195 75.8831 16.1195C76.168 16.1195 76.4583 16.1475 76.7528 16.2006C76.8627 16.2209 76.9757 16.2164 77.0837 16.1875C77.1917 16.1585 77.2922 16.1058 77.378 16.0331C77.4638 15.9604 77.5329 15.8694 77.5804 15.7666C77.6279 15.6638 77.6526 15.5517 77.6528 15.4381V13.3114C77.6532 13.1199 77.588 12.9342 77.4685 12.7861C77.349 12.6381 77.1826 12.5369 76.9978 12.4999C76.7815 12.4571 76.5617 12.436 76.3414 12.4369C75.3643 12.4369 74.4987 12.6846 73.7459 13.1785C72.9932 13.6752 72.4125 14.3748 72.0065 15.28C71.9983 15.2802 71.9902 15.2787 71.9826 15.2756C71.975 15.2725 71.9681 15.2679 71.9623 15.262C71.9565 15.2561 71.9519 15.2491 71.9489 15.2414C71.9459 15.2336 71.9444 15.2254 71.9446 15.217V14.0515C71.9435 13.7257 71.8154 13.4136 71.5884 13.1836C71.3614 12.9536 71.0527 12.8245 70.7322 12.8245ZM82.9386 12.8245H82.0785C81.3037 12.8245 80.6762 13.4597 80.6762 14.2432V26.914C80.6762 27.6975 81.3037 28.3327 82.0785 28.3327H82.9386C83.712 28.3327 84.3395 27.6975 84.3395 26.914V14.2418C84.3395 13.4583 83.712 12.8231 82.9386 12.8231V12.8245ZM80.8138 5.92666C80.3762 6.38838 80.1574 6.93266 80.1574 7.55668C80.1574 8.1821 80.3762 8.72637 80.8138 9.18949C81.2515 9.65121 81.806 9.88347 82.479 9.88347C83.1492 9.88347 83.7148 9.6624 84.1716 9.22167C84.6299 8.77954 84.8597 8.22547 84.8597 7.55668C84.8674 7.24566 84.8101 6.93652 84.6915 6.64972C84.5728 6.36293 84.3957 6.10502 84.1716 5.89308C83.7148 5.45235 83.1492 5.23129 82.479 5.23129C81.806 5.23129 81.2515 5.46354 80.8138 5.92666ZM93.956 15.5388C94.5368 15.5388 95.1987 15.8145 95.9418 16.3685C96.4868 16.7743 97.2395 16.7281 97.7322 16.258L98.1891 15.8243C98.3351 15.6855 98.4501 15.5164 98.5262 15.3285C98.6023 15.1405 98.6377 14.9381 98.63 14.735C98.6223 14.532 98.5716 14.3329 98.4816 14.1515C98.3915 13.9701 98.264 13.8105 98.1079 13.6836C97.6813 13.3366 97.2959 13.0987 96.9492 12.97C96.0207 12.6197 95.0386 12.4392 94.0482 12.4369C93.3161 12.4369 92.5937 12.5335 91.8808 12.7266C91.2 12.9056 90.5582 13.2126 89.9886 13.6318C89.4381 14.0404 88.9964 14.5636 88.6606 15.1989C88.3235 15.8341 88.157 16.584 88.157 17.4445C88.157 18.4351 88.3496 19.2102 88.7363 19.7713C89.123 20.3309 89.6115 20.7675 90.2019 21.0795C90.8031 21.3958 91.4452 21.6242 92.1092 21.7581C92.7918 21.898 93.4276 22.0491 94.018 22.21C94.6083 22.3723 95.0969 22.5822 95.4836 22.8396C95.8689 23.0985 96.0629 23.4972 96.0629 24.0359C96.0689 24.3175 95.9891 24.5941 95.8345 24.8278C95.6831 25.0531 95.4836 25.242 95.2386 25.3931C94.995 25.5442 94.7294 25.6519 94.4459 25.7149C94.1611 25.7807 93.8859 25.8128 93.6203 25.8128C92.8482 25.8128 92.1918 25.6351 91.6524 25.2798C91.4494 25.1407 91.2562 24.9874 91.0744 24.8208C90.8083 24.5841 90.4642 24.458 90.1108 24.4676C89.7573 24.4772 89.4204 24.6218 89.167 24.8726L88.7872 25.2504C88.6438 25.3924 88.5322 25.5642 88.46 25.7541C88.3878 25.9439 88.3568 26.1474 88.3689 26.3505C88.3811 26.5537 88.4361 26.7518 88.5304 26.9314C88.6247 27.111 88.7559 27.2677 88.9152 27.3911C89.4382 27.7968 89.8881 28.0683 90.2638 28.2026C91.2189 28.5482 92.2675 28.7203 93.407 28.7203C94.1672 28.7198 94.9251 28.6334 95.6666 28.4628C96.3859 28.3046 97.0727 28.0206 97.6964 27.6233C98.2969 27.2354 98.799 26.7091 99.162 26.0871C99.5391 25.4518 99.7262 24.6711 99.7262 23.7449C99.7262 22.7319 99.5336 21.9358 99.1482 21.3537C98.7737 20.784 98.2707 20.3135 97.6813 19.9812C97.0828 19.6441 96.4407 19.394 95.7739 19.2382C95.1364 19.0876 94.5001 18.9313 93.8652 18.7695C93.356 18.6493 92.8636 18.4646 92.3996 18.2196C92.0143 18.0042 91.8203 17.66 91.8203 17.1857C91.8203 16.605 92.0542 16.1839 92.5221 15.9264C92.9606 15.6758 93.453 15.5425 93.956 15.5388ZM104.95 12.8245H104.273C103.5 12.8245 102.872 13.4597 102.872 14.2432V26.914C102.872 27.6975 103.5 28.3327 104.273 28.3327H105.133C105.908 28.3327 106.535 27.6975 106.535 26.914V19.8678C106.535 19.3501 106.596 18.8548 106.718 18.3819C106.832 17.9255 107.035 17.4968 107.314 17.1213C107.59 16.7547 107.934 16.4637 108.352 16.2496C108.769 16.0327 109.282 15.9264 109.893 15.9264C110.789 15.9264 111.43 16.2118 111.817 16.7813C112.204 17.3522 112.396 18.1231 112.396 19.0927V26.914C112.396 27.6975 113.025 28.3327 113.8 28.3327H114.659C115.434 28.3327 116.061 27.6975 116.061 26.914V19.9322C116.061 19.4369 116.116 18.9472 116.229 18.4631C116.331 18.0011 116.517 17.5626 116.778 17.1703C117.03 16.7955 117.365 16.4855 117.755 16.265C118.151 16.0383 118.636 15.9264 119.206 15.9264C119.755 15.9264 120.202 16.023 120.549 16.216C120.887 16.4023 121.171 16.6753 121.373 17.008C121.585 17.3656 121.73 17.7604 121.8 18.1721C121.882 18.6128 121.923 19.0703 121.923 19.5446V26.914C121.923 27.6975 122.55 28.3327 123.324 28.3327H124.184C124.958 28.3327 125.585 27.6975 125.585 26.914V19.0927C125.585 18.1665 125.495 17.299 125.31 16.4903C125.148 15.7323 124.843 15.0138 124.41 14.3748C123.991 13.7698 123.429 13.2812 122.777 12.9532C122.105 12.609 121.281 12.4355 120.304 12.4355C119.206 12.4355 118.259 12.6678 117.465 13.1309C116.671 13.594 116.01 14.3202 115.48 15.3122C114.728 13.3953 113.201 12.4369 110.901 12.4369C109.68 12.4369 108.708 12.7224 107.986 13.2918C107.311 13.8181 106.754 14.485 106.352 15.2478V14.2432C106.352 13.4597 105.725 12.8245 104.95 12.8245ZM132.366 12.8245H131.506C130.732 12.8245 130.105 13.4597 130.105 14.2432V26.914C130.105 27.6975 130.732 28.3327 131.506 28.3327H132.366C133.14 28.3327 133.768 27.6975 133.768 26.914V14.2418C133.768 13.4583 133.14 12.8231 132.366 12.8231V12.8245ZM130.242 5.92666C129.805 6.38838 129.586 6.93266 129.586 7.55668C129.586 8.1821 129.805 8.72637 130.242 9.18949C130.68 9.65121 131.233 9.88347 131.906 9.88347C132.578 9.88347 133.142 9.6624 133.599 9.22167C134.058 8.77954 134.287 8.22547 134.287 7.55668C134.294 7.24566 134.237 6.93652 134.119 6.64972C134 6.36293 133.823 6.10502 133.599 5.89308C133.142 5.45235 132.578 5.23129 131.906 5.23129C131.233 5.23129 130.68 5.46215 130.241 5.92527L130.242 5.92666ZM147.11 16.3462C147.248 16.4316 147.381 16.5255 147.507 16.6274C147.781 16.8451 148.125 16.9518 148.472 16.9267C148.818 16.9016 149.144 16.7466 149.384 16.4917L149.95 15.8914C150.087 15.7464 150.193 15.5732 150.259 15.3835C150.325 15.1939 150.351 14.992 150.334 14.7914C150.318 14.5908 150.259 14.3961 150.163 14.2202C150.067 14.0444 149.934 13.8915 149.775 13.7717C149.285 13.4023 148.859 13.1449 148.498 13.0022C147.6 12.6349 146.642 12.4431 145.674 12.4369C144.575 12.4369 143.537 12.63 142.56 13.0176C141.583 13.4051 140.74 13.955 140.027 14.6658C139.299 15.3988 138.723 16.2722 138.333 17.2346C137.916 18.2364 137.706 19.3501 137.706 20.5786C137.706 21.8071 137.914 22.9208 138.333 23.9226C138.723 24.8851 139.299 25.7584 140.027 26.4914C140.74 27.2022 141.583 27.7507 142.56 28.1396C143.537 28.5272 144.575 28.7203 145.674 28.7203C146.001 28.7203 146.387 28.6825 146.834 28.6083C147.84 28.4341 148.806 28.0788 149.689 27.559C149.86 27.4592 150.008 27.3217 150.12 27.1565C150.233 26.9914 150.307 26.8027 150.339 26.6044C150.371 26.4061 150.358 26.203 150.303 26.0102C150.248 25.8173 150.151 25.6395 150.019 25.4896L149.462 24.8558C149.229 24.5914 148.907 24.4245 148.56 24.3875C148.213 24.3505 147.865 24.4461 147.583 24.6557C147.468 24.7411 147.362 24.8096 147.262 24.86C146.769 25.1086 146.225 25.2356 145.674 25.2308C145.003 25.2308 144.403 25.1021 143.873 24.8432C143.358 24.5944 142.896 24.2433 142.516 23.8105C142.136 23.3778 141.845 22.8721 141.66 22.3233C141.466 21.7628 141.368 21.1728 141.37 20.5786C141.37 19.9756 141.466 19.3935 141.66 18.8339C141.845 18.2851 142.136 17.7794 142.516 17.3467C142.896 16.9139 143.358 16.5628 143.873 16.314C144.437 16.048 145.053 15.9154 145.674 15.9264C146.163 15.9264 146.642 16.0663 147.11 16.3462Z" fill="white"/>
</g>
<defs>
<clipPath id="clip0_290_435">
<rect width="150" height="38.5321" fill="white" transform="translate(0.523926 0.877441)"/>
</clipPath>
</defs>
</svg>
