<svg width="151" height="41" viewBox="0 0 151 41" fill="none" xmlns="http://www.w3.org/2000/svg">
<g clip-path="url(#clip0_290_392)">
<path d="M20.4943 40.8139C31.5237 40.8139 40.4648 31.8728 40.4648 20.8435C40.4648 9.81411 31.5237 0.873047 20.4943 0.873047C9.46498 0.873047 0.523926 9.81411 0.523926 20.8435C0.523926 31.8728 9.46498 40.8139 20.4943 40.8139Z" fill="white"/>
<path d="M10.4351 15.8138C10.4351 13.036 12.6869 10.7842 15.4646 10.7842H20.4942V25.8729C20.4942 28.6507 18.2425 30.9025 15.4646 30.9025H10.4351V15.8138Z" fill="#E7820E"/>
<path d="M20.4944 10.7842H25.524C28.3018 10.7842 30.5536 13.036 30.5536 15.8138C30.5536 18.5916 28.3018 20.8434 25.524 20.8434C22.7462 20.8434 20.4944 18.5916 20.4944 15.8138V10.7842Z" fill="#E7820E" fill-opacity="0.5"/>
<path d="M48.8918 28.9057V16.8087H52.2421V20.2264L51.77 19.2371C52.1297 18.3826 52.7069 17.7381 53.5013 17.3033C54.2958 16.8536 55.2627 16.6288 56.4019 16.6288V19.8666C56.252 19.8517 56.1171 19.8442 55.9972 19.8442C55.8773 19.8292 55.7498 19.8217 55.6149 19.8217C54.6556 19.8217 53.8762 20.099 53.2765 20.6536C52.6918 21.1933 52.3995 22.0402 52.3995 23.1945V28.9057H48.8918ZM64.3813 29.0856C63.0023 29.0856 61.7881 28.8158 60.7387 28.2761C59.7044 27.7365 58.9025 27.002 58.3328 26.0726C57.7633 25.1282 57.4784 24.0564 57.4784 22.8572C57.4784 21.643 57.7557 20.5712 58.3103 19.6418C58.88 18.6974 59.6521 17.963 60.6263 17.4382C61.6007 16.8986 62.7025 16.6288 63.9316 16.6288C65.116 16.6288 66.1802 16.8837 67.1245 17.3933C68.084 17.888 68.841 18.6075 69.3955 19.5519C69.9503 20.4813 70.2275 21.598 70.2275 22.9022C70.2275 23.0371 70.2201 23.1945 70.205 23.3743C70.1901 23.5393 70.1751 23.6967 70.16 23.8465H60.334V21.8004H68.3163L66.9671 22.4075C66.9671 21.7779 66.8398 21.2307 66.5849 20.7661C66.3302 20.3014 65.9778 19.9416 65.5281 19.6868C65.0784 19.4169 64.5538 19.282 63.9541 19.282C63.3546 19.282 62.8225 19.4169 62.3577 19.6868C61.908 19.9416 61.5557 20.3088 61.3009 20.7885C61.0461 21.2532 60.9186 21.8079 60.9186 22.4524V22.9921C60.9186 23.6517 61.0611 24.2363 61.3458 24.7459C61.6457 25.2406 62.058 25.6229 62.5825 25.8927C63.1222 26.1476 63.7518 26.2749 64.4713 26.2749C65.116 26.2749 65.6781 26.1774 66.1577 25.9826C66.6523 25.7878 67.102 25.4955 67.5068 25.1057L69.3731 27.1294C68.8185 27.759 68.1214 28.2461 67.2819 28.5909C66.4426 28.9206 65.4757 29.0856 64.3813 29.0856ZM78.5664 29.0856C77.1873 29.0856 75.9731 28.8158 74.9238 28.2761C73.8895 27.7365 73.0876 27.002 72.5179 26.0726C71.9482 25.1282 71.6634 24.0564 71.6634 22.8572C71.6634 21.643 71.9408 20.5712 72.4954 19.6418C73.0651 18.6974 73.837 17.963 74.8114 17.4382C75.7858 16.8986 76.8876 16.6288 78.1167 16.6288C79.3009 16.6288 80.3652 16.8837 81.3096 17.3933C82.2689 17.888 83.026 18.6075 83.5806 19.5519C84.1352 20.4813 84.4126 21.598 84.4126 22.9022C84.4126 23.0371 84.405 23.1945 84.3901 23.3743C84.3751 23.5393 84.36 23.6967 84.3451 23.8465H74.5191V21.8004H82.5013L81.1522 22.4075C81.1522 21.7779 81.0248 21.2307 80.77 20.7661C80.5151 20.3014 80.1628 19.9416 79.7131 19.6868C79.2634 19.4169 78.7387 19.282 78.1392 19.282C77.5396 19.282 77.0074 19.4169 76.5427 19.6868C76.093 19.9416 75.7408 20.3088 75.4859 20.7885C75.231 21.2532 75.1037 21.8079 75.1037 22.4524V22.9921C75.1037 23.6517 75.2461 24.2363 75.5309 24.7459C75.8307 25.2406 76.2429 25.6229 76.7676 25.8927C77.3072 26.1476 77.9368 26.2749 78.6563 26.2749C79.3009 26.2749 79.863 26.1774 80.3427 25.9826C80.8374 25.7878 81.2871 25.4955 81.6918 25.1057L83.5581 27.1294C83.0035 27.759 82.3065 28.2461 81.467 28.5909C80.6275 28.9206 79.6606 29.0856 78.5664 29.0856ZM93.8982 29.0856C92.8788 29.0856 91.987 28.8607 91.2225 28.411C90.458 27.9613 89.8583 27.2792 89.4236 26.3649C89.0038 25.4354 88.7941 24.2662 88.7941 22.8572C88.7941 21.4331 88.9964 20.2638 89.4012 19.3495C89.8059 18.4351 90.3905 17.753 91.155 17.3033C91.9195 16.8536 92.8339 16.6288 93.8982 16.6288C95.0374 16.6288 96.0568 16.8911 96.9562 17.4158C97.8705 17.9254 98.5901 18.6449 99.1148 19.5743C99.6544 20.5038 99.9242 21.598 99.9242 22.8572C99.9242 24.1313 99.6544 25.2331 99.1148 26.1625C98.5901 27.0919 97.8705 27.8115 96.9562 28.3211C96.0568 28.8307 95.0374 29.0856 93.8982 29.0856ZM86.7479 33.2678V16.8087H90.0982V19.282L90.0307 22.8797L90.2556 26.4548V33.2678H86.7479ZM93.2911 26.2075C93.8757 26.2075 94.3929 26.0726 94.8426 25.8027C95.3072 25.5329 95.6745 25.1507 95.9444 24.656C96.2291 24.1464 96.3716 23.5467 96.3716 22.8572C96.3716 22.1526 96.2291 21.553 95.9444 21.0584C95.6745 20.5637 95.3072 20.1814 94.8426 19.9116C94.3929 19.6418 93.8757 19.5069 93.2911 19.5069C92.7065 19.5069 92.1818 19.6418 91.7171 19.9116C91.2523 20.1814 90.8852 20.5637 90.6154 21.0584C90.3455 21.553 90.2106 22.1526 90.2106 22.8572C90.2106 23.5467 90.3455 24.1464 90.6154 24.656C90.8852 25.1507 91.2523 25.5329 91.7171 25.8027C92.1818 26.0726 92.7065 26.2075 93.2911 26.2075ZM108.029 29.0856C106.739 29.0856 105.593 28.8158 104.588 28.2761C103.599 27.7365 102.812 27.002 102.227 26.0726C101.658 25.1282 101.373 24.0564 101.373 22.8572C101.373 21.643 101.658 20.5712 102.227 19.6418C102.812 18.6974 103.599 17.963 104.588 17.4382C105.593 16.8986 106.739 16.6288 108.029 16.6288C109.303 16.6288 110.442 16.8986 111.446 17.4382C112.451 17.963 113.238 18.6899 113.807 19.6193C114.377 20.5487 114.662 21.628 114.662 22.8572C114.662 24.0564 114.377 25.1282 113.807 26.0726C113.238 27.002 112.451 27.7365 111.446 28.2761C110.442 28.8158 109.303 29.0856 108.029 29.0856ZM108.029 26.2075C108.613 26.2075 109.138 26.0726 109.602 25.8027C110.067 25.5329 110.434 25.1507 110.704 24.656C110.974 24.1464 111.109 23.5467 111.109 22.8572C111.109 22.1526 110.974 21.553 110.704 21.0584C110.434 20.5637 110.067 20.1814 109.602 19.9116C109.138 19.6418 108.613 19.5069 108.029 19.5069C107.444 19.5069 106.919 19.6418 106.455 19.9116C105.99 20.1814 105.615 20.5637 105.33 21.0584C105.06 21.553 104.926 22.1526 104.926 22.8572C104.926 23.5467 105.06 24.1464 105.33 24.656C105.615 25.1507 105.99 25.5329 106.455 25.8027C106.919 26.0726 107.444 26.2075 108.029 26.2075ZM117.006 28.9057V12.2217H120.514V28.9057H117.006ZM129.773 29.0856C128.394 29.0856 127.18 28.8158 126.13 28.2761C125.096 27.7365 124.294 27.002 123.724 26.0726C123.155 25.1282 122.87 24.0564 122.87 22.8572C122.87 21.643 123.147 20.5712 123.702 19.6418C124.272 18.6974 125.044 17.963 126.018 17.4382C126.992 16.8986 128.094 16.6288 129.323 16.6288C130.508 16.6288 131.572 16.8837 132.516 17.3933C133.476 17.888 134.233 18.6075 134.787 19.5519C135.342 20.4813 135.619 21.598 135.619 22.9022C135.619 23.0371 135.612 23.1945 135.597 23.3743C135.582 23.5393 135.567 23.6967 135.552 23.8465H125.726V21.8004H133.708L132.359 22.4075C132.359 21.7779 132.231 21.2307 131.976 20.7661C131.722 20.3014 131.369 19.9416 130.92 19.6868C130.47 19.4169 129.945 19.282 129.346 19.282C128.746 19.282 128.214 19.4169 127.749 19.6868C127.3 19.9416 126.947 20.3088 126.692 20.7885C126.438 21.2532 126.31 21.8079 126.31 22.4524V22.9921C126.31 23.6517 126.453 24.2363 126.737 24.7459C127.037 25.2406 127.45 25.6229 127.974 25.8927C128.514 26.1476 129.143 26.2749 129.863 26.2749C130.508 26.2749 131.07 26.1774 131.549 25.9826C132.044 25.7878 132.494 25.4955 132.898 25.1057L134.765 27.1294C134.21 27.759 133.513 28.2461 132.674 28.5909C131.834 28.9206 130.867 29.0856 129.773 29.0856ZM143.958 29.0856C142.579 29.0856 141.365 28.8158 140.315 28.2761C139.281 27.7365 138.479 27.002 137.909 26.0726C137.34 25.1282 137.055 24.0564 137.055 22.8572C137.055 21.643 137.332 20.5712 137.887 19.6418C138.457 18.6974 139.229 17.963 140.203 17.4382C141.177 16.8986 142.279 16.6288 143.508 16.6288C144.692 16.6288 145.757 16.8837 146.701 17.3933C147.66 17.888 148.418 18.6075 148.972 19.5519C149.527 20.4813 149.804 21.598 149.804 22.9022C149.804 23.0371 149.796 23.1945 149.781 23.3743C149.767 23.5393 149.752 23.6967 149.737 23.8465H139.911V21.8004H147.893L146.544 22.4075C146.544 21.7779 146.416 21.2307 146.162 20.7661C145.907 20.3014 145.554 19.9416 145.105 19.6868C144.655 19.4169 144.13 19.282 143.531 19.282C142.931 19.282 142.399 19.4169 141.934 19.6868C141.485 19.9416 141.132 20.3088 140.877 20.7885C140.623 21.2532 140.495 21.8079 140.495 22.4524V22.9921C140.495 23.6517 140.638 24.2363 140.922 24.7459C141.222 25.2406 141.634 25.6229 142.159 25.8927C142.699 26.1476 143.328 26.2749 144.048 26.2749C144.692 26.2749 145.255 26.1774 145.734 25.9826C146.229 25.7878 146.679 25.4955 147.083 25.1057L148.95 27.1294C148.395 27.759 147.698 28.2461 146.859 28.5909C146.019 28.9206 145.052 29.0856 143.958 29.0856Z" fill="white"/>
</g>
<defs>
<clipPath id="clip0_290_392">
<rect width="150" height="39.9408" fill="white" transform="translate(0.523926 0.873047)"/>
</clipPath>
</defs>
</svg>
